<svg xmlns="http://www.w3.org/2000/svg" width="1024" height="562" viewBox="0 0 1020 560"><defs><filter id="synapse-elev-1" x="-50%" y="-50%" width="200%" height="200%" color-interpolation-filters="sRGB"><feGaussianBlur in="SourceAlpha" stdDeviation="1" result="b0"/><feOffset in="b0" dx="0" dy="1" result="o0"/><feFlood flood-color="#101828" flood-opacity="0.06" result="f0"/><feComposite in="f0" in2="o0" operator="in" result="s0"/><feGaussianBlur in="SourceAlpha" stdDeviation="1.5" result="b1"/><feOffset in="b1" dx="0" dy="1" result="o1"/><feFlood flood-color="#101828" flood-opacity="0.1" result="f1"/><feComposite in="f1" in2="o1" operator="in" result="s1"/><feMerge><feMergeNode in="s0"/><feMergeNode in="s1"/><feMergeNode in="SourceGraphic"/></feMerge></filter><pattern id="synapse-hatch-0" width="12" height="12" patternUnits="userSpaceOnUse" patternTransform="rotate(45)"><line x1="0" y1="0" x2="0" y2="12" stroke="#60646c" stroke-width="3"/></pattern><clipPath id="synapse-clip-0"><rect x="780" y="340" width="200" height="100"/></clipPath></defs><rect x="0" y="0" width="1020" height="560" fill="#f7f8fa"/><g data-layer="zones"><g data-id="E-1"><rect x="40" y="40" width="720" height="480" rx="16" fill="#f0f1f4" stroke="#d9dce1" stroke-width="1" stroke-linecap="round" stroke-linejoin="round"/><g font-size="16" font-family="Inter" font-weight="600" fill="#1c2024" text-anchor="start"><text x="60" y="63.1" xml:space="preserve">Kitchen sink &amp; &lt;everything&gt;</text></g></g></g><g data-layer="marks"><g data-id="E-2"><ellipse cx="160" cy="140" rx="80" ry="40" fill="#e8f2fe" stroke="#3f84d8" stroke-width="2" stroke-dasharray="8 6" stroke-linecap="round" stroke-linejoin="round"/><g font-size="20" font-family="Inter" font-weight="500" fill="#0b3a6e" text-anchor="middle"><text x="160" y="146.5" xml:space="preserve">Ellipse</text></g></g><g data-id="E-3"><polygon points="380,100 460,150 380,200 300,150" fill="#ffffff" stroke="#80858f" stroke-width="2" stroke-linecap="round" stroke-linejoin="round"/><g font-size="16" font-family="Geist Mono" font-weight="400" fill="#1c2024" text-anchor="middle"><text x="380" y="146" xml:space="preserve">if x</text><text x="380" y="166" xml:space="preserve"></text></g></g><g data-id="E-4"><rect x="520" y="100" width="180" height="160" rx="4" fill="#fff1b8" stroke="none" filter="url(#synapse-elev-1)"/><g font-size="20" font-family="Inter" font-weight="400" fill="#5c4400" text-anchor="start"><text x="536" y="136" xml:space="preserve" unicode-bidi="plaintext">שלום עולם</text><text x="536" y="161" xml:space="preserve">emoji 🎉 ok</text></g></g><g data-id="E-5"><g><path d="M240 140 L300 150" fill="none" stroke="#6b7079" stroke-width="2" stroke-linecap="round" stroke-linejoin="round"/><polygon points="286.5,141.4 300,150 284.2,155.2" fill="#6b7079" stroke="none"/><circle cx="240" cy="140" r="5" fill="#6b7079" stroke="none"/></g></g><g data-id="E-6"><g opacity="0.8"><path d="M380 200 C450 320 540 320 610 260" fill="none" stroke="#d93036" stroke-width="2" stroke-dasharray="8 6" stroke-linecap="round" stroke-linejoin="round"/><polyline points="598,275 610,260 592,262" fill="none" stroke="#d93036" stroke-width="2" stroke-linecap="round" stroke-linejoin="round"/></g></g><g data-id="E-7"><polyline points="80,340 140,300 200,380 260,320" fill="none" stroke="#1c2024" stroke-width="3" stroke-linecap="round" stroke-linejoin="round"/></g><g data-id="E-8"><g transform="matrix(2 0 0 2 80 400)"><path d="M0 0 L60 0 L60 50 Z M10 10 L50 10 L50 40 Z" fill-rule="evenodd" fill="#e8f2fe" stroke="#3f84d8" stroke-width="1" stroke-linecap="round" stroke-linejoin="round"/></g></g><g data-id="E-9"><image x="240" y="400" width="120" height="100" preserveAspectRatio="xMidYMid meet" href="synapse-asset:0123456789abcdef0123456789abcdef.png"/></g><g data-id="E-10"><g data-slot="chart"><rect x="400" y="400" width="160" height="100" rx="8" fill="#f0f1f4" stroke="#80858f" stroke-width="1" stroke-dasharray="6 4" stroke-linecap="round" stroke-linejoin="round"/><g font-size="16" font-family="Inter" font-weight="500" fill="#1c2024" text-anchor="middle"><text x="480" y="455" xml:space="preserve">chart</text></g></g></g><g data-id="E-11"><g data-slot="viz"><image x="580" y="400" width="160" height="100" preserveAspectRatio="xMidYMid meet" href="synapse-still:E-11-v1.png"/></g></g></g><g data-layer="labels"><g data-id="E-6"><rect x="440" y="250" width="72" height="24" rx="6" fill="#ffffff" stroke="#e3e5e9" stroke-width="1" stroke-linecap="round" stroke-linejoin="round"/><g font-size="16" font-family="Inter" font-weight="500" fill="#5b616b" text-anchor="middle"><text x="476" y="267.3" xml:space="preserve">a &quot;quote&quot;</text></g></g></g><g data-layer="overlays"><g data-id="C-1"><g transform="translate(200 100) scale(1)"><ellipse cx="0" cy="0" rx="10" ry="10" fill="#3e5bd6" stroke="none"/><g font-size="11" font-family="Inter" font-weight="600" fill="#ffffff" text-anchor="middle"><text x="0" y="4" xml:space="preserve">1</text></g></g></g><g data-id="K-1"><rect x="780" y="200" width="200" height="120" fill="none" stroke="#0b7285" stroke-width="1.99" stroke-dasharray="8 6" stroke-linecap="round" stroke-linejoin="round"/><g transform="translate(780 200) scale(1)"><g font-size="12" font-family="Inter" font-weight="500" fill="#0b7285" text-anchor="start"><text x="4" y="14" xml:space="preserve">K-1 beta: tidy</text></g></g></g><g data-id="X-1"><rect x="780" y="340" width="200" height="100" fill="url(#synapse-hatch-0)" stroke="#60646c" stroke-width="1.99" stroke-linecap="round" stroke-linejoin="round" opacity="0.45"/><g clip-path="url(#synapse-clip-0)"><g font-size="12" font-family="Inter" font-weight="500" fill="#1c2024" text-anchor="start"><text x="784" y="432" xml:space="preserve">X-1 locked: hands off</text></g></g></g></g></svg>
