<svg xmlns="http://www.w3.org/2000/svg" width="1024" height="330" viewBox="-40 -100.94 4160 1340.94"><rect x="-40" y="-100.94" width="4160" height="1340.94" fill="#f7f8fa"/><g data-layer="zones"><g data-id="E-1"><rect x="0" y="0" width="4080" height="1040" rx="16" fill="#f0f1f4" stroke="#d9dce1" stroke-width="6.09" stroke-linecap="round" stroke-linejoin="round"/><g font-size="48.75" font-family="Inter" font-weight="600" fill="#1c2024" text-anchor="start"><text x="0" y="-12.67" xml:space="preserve">Shop platform: production architecture</text></g></g></g><g data-layer="marks"><g data-id="E-2"><rect x="40" y="350" width="200" height="80" rx="8" fill="#ffffff" stroke="#80858f" stroke-width="2" stroke-linecap="round" stroke-linejoin="round"/><g font-size="20" font-family="Inter" font-weight="500" fill="#1c2024" text-anchor="middle"><text x="140" y="384.78" xml:space="preserve">Web app</text><text x="140" y="409.78" xml:space="preserve">(Next.js 15, SSR)</text></g></g><g data-id="E-3"><rect x="40" y="490" width="200" height="80" rx="8" fill="#ffffff" stroke="#80858f" stroke-width="2" stroke-linecap="round" stroke-linejoin="round"/><g font-size="20" font-family="Inter" font-weight="500" fill="#1c2024" text-anchor="middle"><text x="140" y="524.78" xml:space="preserve">Mobile app (iOS</text><text x="140" y="549.78" xml:space="preserve">and Android)</text></g></g><g data-id="E-4"><rect x="20" y="630" width="240" height="80" rx="8" fill="#ffffff" stroke="#80858f" stroke-width="2" stroke-linecap="round" stroke-linejoin="round"/><g font-size="20" font-family="Inter" font-weight="500" fill="#1c2024" text-anchor="middle"><text x="140" y="664.78" xml:space="preserve">Partner integrations</text><text x="140" y="689.78" xml:space="preserve">over REST</text></g></g><g data-id="E-5"><ellipse cx="500" cy="470" rx="140" ry="60" fill="#ffffff" stroke="#80858f" stroke-width="2" stroke-linecap="round" stroke-linejoin="round"/><g font-size="20" font-family="Inter" font-weight="500" fill="#1c2024" text-anchor="middle"><text x="500" y="477.28" xml:space="preserve">CDN edge cache</text></g></g><g data-id="E-6"><rect x="740" y="490" width="160" height="80" rx="8" fill="#ffffff" stroke="#80858f" stroke-width="2" stroke-linecap="round" stroke-linejoin="round"/><g font-size="20" font-family="Inter" font-weight="500" fill="#1c2024" text-anchor="middle"><text x="820" y="524.78" xml:space="preserve">WAF and bot</text><text x="820" y="549.78" xml:space="preserve">protection</text></g></g><g data-id="E-7"><rect x="1000" y="490" width="240" height="80" rx="8" fill="#ffffff" stroke="#80858f" stroke-width="2" stroke-linecap="round" stroke-linejoin="round"/><g font-size="20" font-family="Inter" font-weight="500" fill="#1c2024" text-anchor="middle"><text x="1120" y="524.78" xml:space="preserve">API gateway (Envoy)</text><text x="1120" y="549.78" xml:space="preserve">with rate limits</text></g></g><g data-id="E-8"><rect x="1340" y="560" width="240" height="100" rx="8" fill="#ffffff" stroke="#80858f" stroke-width="2" stroke-linecap="round" stroke-linejoin="round"/><g font-size="20" font-family="Inter" font-weight="500" fill="#1c2024" text-anchor="middle"><text x="1460" y="592.28" xml:space="preserve">Auth service / JWT</text><text x="1460" y="617.28" xml:space="preserve">issuer and key</text><text x="1460" y="642.28" xml:space="preserve">rotation</text></g></g><g data-id="E-9"><rect x="1340" y="440" width="240" height="60" rx="8" fill="#ffffff" stroke="#80858f" stroke-width="2" stroke-linecap="round" stroke-linejoin="round"/><g font-size="20" font-family="Inter" font-weight="500" fill="#1c2024" text-anchor="middle"><text x="1460" y="477.28" xml:space="preserve">User profile service</text></g></g><g data-id="E-10"><rect x="1360" y="140" width="200" height="80" rx="8" fill="#ffffff" stroke="#80858f" stroke-width="2" stroke-linecap="round" stroke-linejoin="round"/><g font-size="20" font-family="Inter" font-weight="500" fill="#1c2024" text-anchor="middle"><text x="1460" y="174.78" xml:space="preserve">Product</text><text x="1460" y="199.78" xml:space="preserve">catalog service</text></g></g><g data-id="E-11"><rect x="1360" y="280" width="200" height="100" rx="8" fill="#ffffff" stroke="#80858f" stroke-width="2" stroke-linecap="round" stroke-linejoin="round"/><g font-size="20" font-family="Inter" font-weight="500" fill="#1c2024" text-anchor="middle"><text x="1460" y="312.28" xml:space="preserve">Search service</text><text x="1460" y="337.28" xml:space="preserve">(OpenSearch</text><text x="1460" y="362.28" xml:space="preserve">cluster, 6 nodes)</text></g></g><g data-id="E-12"><rect x="1750" y="400" width="160" height="60" rx="8" fill="#ffffff" stroke="#80858f" stroke-width="2" stroke-linecap="round" stroke-linejoin="round"/><g font-size="20" font-family="Inter" font-weight="500" fill="#1c2024" text-anchor="middle"><text x="1830" y="437.28" xml:space="preserve">Cart service</text></g></g><g data-id="E-13"><rect x="1380" y="780" width="160" height="80" rx="8" fill="#ffffff" stroke="#80858f" stroke-width="2" stroke-linecap="round" stroke-linejoin="round"/><g font-size="20" font-family="Inter" font-weight="500" fill="#1c2024" text-anchor="middle"><text x="1460" y="814.78" xml:space="preserve">Checkout</text><text x="1460" y="839.78" xml:space="preserve">orchestrator</text></g></g><g data-id="E-14"><rect x="1720" y="640" width="220" height="80" rx="8" fill="#ffffff" stroke="#80858f" stroke-width="2" stroke-linecap="round" stroke-linejoin="round"/><g font-size="20" font-family="Inter" font-weight="500" fill="#1c2024" text-anchor="middle"><text x="1830" y="674.78" xml:space="preserve">Payments adapter</text><text x="1830" y="699.78" xml:space="preserve">(Stripe, Adyen)</text></g></g><g data-id="E-15"><polygon points="1830,780 1980,870 1830,960 1680,870" fill="#ffffff" stroke="#80858f" stroke-width="2" stroke-linecap="round" stroke-linejoin="round"/><g font-size="20" font-family="Inter" font-weight="500" fill="#1c2024" text-anchor="middle"><text x="1830" y="864.78" xml:space="preserve">Fraud scoring</text><text x="1830" y="889.78" xml:space="preserve">model v7</text></g></g><g data-id="E-16"><rect x="1740" y="520" width="180" height="60" rx="8" fill="#ffffff" stroke="#80858f" stroke-width="2" stroke-linecap="round" stroke-linejoin="round"/><g font-size="20" font-family="Inter" font-weight="500" fill="#1c2024" text-anchor="middle"><text x="1830" y="557.28" xml:space="preserve">Order service</text></g></g><g data-id="E-17"><rect x="2180" y="700" width="160" height="80" rx="8" fill="#ffffff" stroke="#80858f" stroke-width="2" stroke-linecap="round" stroke-linejoin="round"/><g font-size="20" font-family="Inter" font-weight="500" fill="#1c2024" text-anchor="middle"><text x="2260" y="734.78" xml:space="preserve">Inventory</text><text x="2260" y="759.78" xml:space="preserve">reservations</text></g></g><g data-id="E-18"><rect x="2570" y="520" width="180" height="80" rx="8" fill="#ffffff" stroke="#80858f" stroke-width="2" stroke-linecap="round" stroke-linejoin="round"/><g font-size="20" font-family="Inter" font-weight="500" fill="#1c2024" text-anchor="middle"><text x="2660" y="554.78" xml:space="preserve">Shipping and</text><text x="2660" y="579.78" xml:space="preserve">label printing</text></g></g><g data-id="E-19"><rect x="2540" y="660" width="240" height="80" rx="8" fill="#ffffff" stroke="#80858f" stroke-width="2" stroke-linecap="round" stroke-linejoin="round"/><g font-size="20" font-family="Inter" font-weight="500" fill="#1c2024" text-anchor="middle"><text x="2660" y="694.78" xml:space="preserve">Notification fan-out</text><text x="2660" y="719.78" xml:space="preserve">(e-mail, SMS, push)</text></g></g><g data-id="E-20"><ellipse cx="2260" cy="570" rx="180" ry="70" fill="#ffffff" stroke="#80858f" stroke-width="2" stroke-linecap="round" stroke-linejoin="round"/><g font-size="20" font-family="Inter" font-weight="500" fill="#1c2024" text-anchor="middle"><text x="2260" y="564.78" xml:space="preserve">Event bus (Kafka, 3</text><text x="2260" y="589.78" xml:space="preserve">brokers, 48 partitions)</text></g></g><g data-id="E-21"><rect x="2540" y="320" width="240" height="80" rx="8" fill="#ffffff" stroke="#80858f" stroke-width="2" stroke-linecap="round" stroke-linejoin="round"/><g font-size="20" font-family="Inter" font-weight="500" fill="#1c2024" text-anchor="middle"><text x="2660" y="354.78" xml:space="preserve">PostgreSQL 17</text><text x="2660" y="379.78" xml:space="preserve">primary (eu-west-1)</text></g></g><g data-id="E-22"><rect x="2900" y="310" width="200" height="60" rx="8" fill="#ffffff" stroke="#80858f" stroke-width="2" stroke-linecap="round" stroke-linejoin="round"/><g font-size="20" font-family="Inter" font-weight="500" fill="#1c2024" text-anchor="middle"><text x="3000" y="347.28" xml:space="preserve">Read replicas x3</text></g></g><g data-id="E-23"><ellipse cx="2260" cy="390" rx="140" ry="50" fill="#ffffff" stroke="#80858f" stroke-width="2" stroke-linecap="round" stroke-linejoin="round"/><g font-size="20" font-family="Inter" font-weight="500" fill="#1c2024" text-anchor="middle"><text x="2260" y="384.78" xml:space="preserve">Redis session and</text><text x="2260" y="409.78" xml:space="preserve">cart cache</text></g></g><g data-id="E-24"><rect x="2880" y="430" width="240" height="80" rx="8" fill="#ffffff" stroke="#80858f" stroke-width="2" stroke-linecap="round" stroke-linejoin="round"/><g font-size="20" font-family="Inter" font-weight="500" fill="#1c2024" text-anchor="middle"><text x="3000" y="464.78" xml:space="preserve">Object storage for</text><text x="3000" y="489.78" xml:space="preserve">invoices and images</text></g></g><g data-id="E-25"><rect x="3220" y="430" width="180" height="80" rx="8" fill="#ffffff" stroke="#80858f" stroke-width="2" stroke-linecap="round" stroke-linejoin="round"/><g font-size="20" font-family="Inter" font-weight="500" fill="#1c2024" text-anchor="middle"><text x="3310" y="464.78" xml:space="preserve">Nightly ETL to</text><text x="3310" y="489.78" xml:space="preserve">the warehouse</text></g></g><g data-id="E-26"><rect x="3500" y="490" width="240" height="80" rx="8" fill="#ffffff" stroke="#80858f" stroke-width="2" stroke-linecap="round" stroke-linejoin="round"/><g font-size="20" font-family="Inter" font-weight="500" fill="#1c2024" text-anchor="middle"><text x="3620" y="524.78" xml:space="preserve">Analytics warehouse</text><text x="3620" y="549.78" xml:space="preserve">(BigQuery)</text></g></g><g data-id="E-27"><rect x="3840" y="470" width="220" height="120" rx="4" fill="#fff0a0" stroke="#9e8000" stroke-width="2" stroke-linecap="round" stroke-linejoin="round"/><g font-size="20" font-family="Inter" font-weight="500" fill="#4a3b05" text-anchor="middle"><text x="3950" y="524.78" xml:space="preserve">BI dashboards for</text><text x="3950" y="549.78" xml:space="preserve">finance and ops</text></g></g><g data-id="E-28"><rect x="2880" y="630" width="240" height="120" rx="4" fill="#fff0a0" stroke="#9e8000" stroke-width="2" stroke-linecap="round" stroke-linejoin="round"/><g font-size="20" font-family="Inter" font-weight="500" fill="#4a3b05" text-anchor="middle"><text x="3000" y="684.78" xml:space="preserve">Observability:</text><text x="3000" y="709.78" xml:space="preserve">traces, logs, metrics</text></g></g><g data-id="E-29"><rect x="3220" y="570" width="180" height="60" rx="8" fill="#ffffff" stroke="#80858f" stroke-width="2" stroke-linecap="round" stroke-linejoin="round"/><g font-size="20" font-family="Inter" font-weight="500" fill="#1c2024" text-anchor="middle"><text x="3310" y="607.28" xml:space="preserve">On-call paging</text></g></g><g data-id="E-30"><g><path d="M243.9 413.09 L371.81 441.51" fill="none" stroke="#6b7079" stroke-width="2" stroke-linecap="round" stroke-linejoin="round"/><polyline points="356.62,445.31 371.81,441.51 359.66,431.64" fill="none" stroke="#6b7079" stroke-width="2" stroke-linecap="round" stroke-linejoin="round"/></g></g><g data-id="E-31"><g><path d="M243.95 547.32 L500 590 L736.07 545.74" fill="none" stroke="#6b7079" stroke-width="2" stroke-linecap="round" stroke-linejoin="round"/><polyline points="723.6,555.2 736.07,545.74 721.02,541.44" fill="none" stroke="#6b7079" stroke-width="2" stroke-linecap="round" stroke-linejoin="round"/></g></g><g data-id="E-32"><g><path d="M263.99 663.11 L500 650 L736.25 561.4" fill="none" stroke="#6b7079" stroke-width="2" stroke-linecap="round" stroke-linejoin="round"/><polyline points="725.6,572.87 736.25,561.4 720.68,559.76" fill="none" stroke="#6b7079" stroke-width="2" stroke-linecap="round" stroke-linejoin="round"/></g></g><g data-id="E-33"><g><path d="M632.19 494.79 L736.07 514.26" fill="none" stroke="#6b7079" stroke-width="2" stroke-linecap="round" stroke-linejoin="round"/><polyline points="721.02,518.56 736.07,514.26 723.6,504.8" fill="none" stroke="#6b7079" stroke-width="2" stroke-linecap="round" stroke-linejoin="round"/></g></g><g data-id="E-34"><g><path d="M904 530 L996 530" fill="none" stroke="#6b7079" stroke-width="2" stroke-linecap="round" stroke-linejoin="round"/><polyline points="982,537 996,530 982,523" fill="none" stroke="#6b7079" stroke-width="2" stroke-linecap="round" stroke-linejoin="round"/></g></g><g data-id="E-35"><g><path d="M1243.89 559.15 L1336.11 580.85" fill="none" stroke="#6b7079" stroke-width="2" stroke-linecap="round" stroke-linejoin="round"/><polyline points="1320.88,584.46 1336.11,580.85 1324.09,570.83" fill="none" stroke="#6b7079" stroke-width="2" stroke-linecap="round" stroke-linejoin="round"/></g></g><g data-id="E-36"><g><path d="M1243.94 508.13 L1336.06 491.87" fill="none" stroke="#6b7079" stroke-width="2" stroke-linecap="round" stroke-linejoin="round"/><polyline points="1323.49,501.2 1336.06,491.87 1321.06,487.41" fill="none" stroke="#6b7079" stroke-width="2" stroke-linecap="round" stroke-linejoin="round"/></g></g><g data-id="E-37"><g><path d="M1161.64 487.13 L1418.36 222.87" fill="none" stroke="#6b7079" stroke-width="2" stroke-linecap="round" stroke-linejoin="round"/><polyline points="1413.63,237.79 1418.36,222.87 1403.58,228.03" fill="none" stroke="#6b7079" stroke-width="2" stroke-linecap="round" stroke-linejoin="round"/></g></g><g data-id="E-38"><g><path d="M1191.45 487.97 L1371.55 382.03" fill="none" stroke="#6b7079" stroke-width="2" stroke-linecap="round" stroke-linejoin="round"/><polyline points="1363.03,395.16 1371.55,382.03 1355.93,383.09" fill="none" stroke="#6b7079" stroke-width="2" stroke-linecap="round" stroke-linejoin="round"/></g></g><g data-id="E-39"><g><path d="M1195.07 571.95 L1460 720 L1788.58 462.47" fill="none" stroke="#6b7079" stroke-width="2" stroke-linecap="round" stroke-linejoin="round"/><polyline points="1781.88,476.62 1788.58,462.47 1773.24,465.6" fill="none" stroke="#6b7079" stroke-width="2" stroke-linecap="round" stroke-linejoin="round"/></g></g><g data-id="E-40"><g><path d="M1169.94 572.6 L1410.06 777.4" fill="none" stroke="#6b7079" stroke-width="2" stroke-linecap="round" stroke-linejoin="round"/><polyline points="1394.87,773.64 1410.06,777.4 1403.95,762.99" fill="none" stroke="#6b7079" stroke-width="2" stroke-linecap="round" stroke-linejoin="round"/></g></g><g data-id="E-41"><g><path d="M1531.75 557.64 L1830 340 L2122.9 374.06" fill="none" stroke="#6b7079" stroke-width="2" stroke-linecap="round" stroke-linejoin="round"/><polyline points="2108.19,379.4 2122.9,374.06 2109.8,365.49" fill="none" stroke="#6b7079" stroke-width="2" stroke-linecap="round" stroke-linejoin="round"/></g></g><g data-id="E-42"><g><path d="M1507.71 437.76 L1830 220 L2260 280 L2536.08 335.22" fill="none" stroke="#6b7079" stroke-width="2" stroke-linecap="round" stroke-linejoin="round"/><polyline points="2520.98,339.34 2536.08,335.22 2523.72,325.61" fill="none" stroke="#6b7079" stroke-width="2" stroke-linecap="round" stroke-linejoin="round"/></g></g><g data-id="E-43"><g><path d="M1563.74 140.75 L1830 40 L2260 100 L2595.11 317.82" fill="none" stroke="#6b7079" stroke-width="2" stroke-linecap="round" stroke-linejoin="round"/><polyline points="2579.56,316.06 2595.11,317.82 2587.19,304.32" fill="none" stroke="#6b7079" stroke-width="2" stroke-linecap="round" stroke-linejoin="round"/></g></g><g data-id="E-44"><g><path d="M1563.91 157.53 L1830 100 L2260 160 L2660 200 L2946.5 427.51" fill="none" stroke="#6b7079" stroke-width="2" stroke-linecap="round" stroke-linejoin="round"/><polyline points="2931.18,424.29 2946.5,427.51 2939.89,413.32" fill="none" stroke="#6b7079" stroke-width="2" stroke-linecap="round" stroke-linejoin="round"/></g></g><g data-id="E-45"><g><path d="M1563.63 282.38 L1830 160 L2260 220 L2660 260 L2896.11 315.55" fill="none" stroke="#6b7079" stroke-width="2" stroke-linecap="round" stroke-linejoin="round"/><polyline points="2880.88,319.16 2896.11,315.55 2884.09,305.53" fill="none" stroke="#6b7079" stroke-width="2" stroke-linecap="round" stroke-linejoin="round"/></g></g><g data-id="E-46"><g><path d="M1913.98 422.19 L2120.54 402.97" fill="none" stroke="#6b7079" stroke-width="2" stroke-linecap="round" stroke-linejoin="round"/><polyline points="2107.25,411.24 2120.54,402.97 2105.95,397.3" fill="none" stroke="#6b7079" stroke-width="2" stroke-linecap="round" stroke-linejoin="round"/></g></g><g data-id="E-47"><g><path d="M1500.7 777.1 L1798.79 462.9" fill="none" stroke="#6b7079" stroke-width="2" stroke-linecap="round" stroke-linejoin="round"/><polyline points="1794.23,477.87 1798.79,462.9 1784.08,468.24" fill="none" stroke="#6b7079" stroke-width="2" stroke-linecap="round" stroke-linejoin="round"/></g></g><g data-id="E-48"><g><path d="M1543.74 788.31 L1720.54 721.42" fill="none" stroke="#6b7079" stroke-width="2" stroke-linecap="round" stroke-linejoin="round"/><polyline points="1709.92,732.92 1720.54,721.42 1704.97,719.83" fill="none" stroke="#6b7079" stroke-width="2" stroke-linecap="round" stroke-linejoin="round"/></g></g><g data-id="E-49"><g><path d="M1543.96 831.35 L1703.61 852.92" fill="none" stroke="#6b7079" stroke-width="2" stroke-linecap="round" stroke-linejoin="round"/><polyline points="1688.8,857.98 1703.61,852.92 1690.67,844.11" fill="none" stroke="#6b7079" stroke-width="2" stroke-linecap="round" stroke-linejoin="round"/></g></g><g data-id="E-50"><g><path d="M1703.61 852.92 L1543.96 831.35" fill="none" stroke="#6b7079" stroke-width="2" stroke-linecap="round" stroke-linejoin="round"/><polyline points="1558.77,826.29 1543.96,831.35 1556.9,840.16" fill="none" stroke="#6b7079" stroke-width="2" stroke-linecap="round" stroke-linejoin="round"/></g></g><g data-id="E-51"><g><path d="M1518.05 777.64 L1785.66 582.36" fill="none" stroke="#6b7079" stroke-width="2" stroke-linecap="round" stroke-linejoin="round"/><polyline points="1778.48,596.27 1785.66,582.36 1770.22,584.96" fill="none" stroke="#6b7079" stroke-width="2" stroke-linecap="round" stroke-linejoin="round"/></g></g><g data-id="E-52"><g><path d="M1877.8 582.24 L2260 840 L2624.11 403.07" fill="none" stroke="#6b7079" stroke-width="2" stroke-linecap="round" stroke-linejoin="round"/><polyline points="2620.52,418.31 2624.11,403.07 2609.77,409.34" fill="none" stroke="#6b7079" stroke-width="2" stroke-linecap="round" stroke-linejoin="round"/></g></g><g data-id="E-53"><g><path d="M1901.55 581.62 L2176.34 703.03" fill="none" stroke="#6b7079" stroke-width="2" stroke-linecap="round" stroke-linejoin="round"/><polyline points="2160.71,703.77 2176.34,703.03 2166.36,690.97" fill="none" stroke="#6b7079" stroke-width="2" stroke-linecap="round" stroke-linejoin="round"/></g></g><g data-id="E-54"><g><path d="M2305.01 697.25 L2614.99 402.75" fill="none" stroke="#6b7079" stroke-width="2" stroke-linecap="round" stroke-linejoin="round"/><polyline points="2609.66,417.47 2614.99,402.75 2600.02,407.32" fill="none" stroke="#6b7079" stroke-width="2" stroke-linecap="round" stroke-linejoin="round"/></g></g><g data-id="E-55"><g><path d="M1924 554.37 L2077.28 561.5" fill="none" stroke="#6b7079" stroke-width="2" stroke-linecap="round" stroke-linejoin="round"/><polyline points="2062.97,567.84 2077.28,561.5 2063.62,553.86" fill="none" stroke="#6b7079" stroke-width="2" stroke-linecap="round" stroke-linejoin="round"/></g></g><g data-id="E-56"><g><path d="M2443.63 565.41 L2566 562.35" fill="none" stroke="#6b7079" stroke-width="2" stroke-linecap="round" stroke-linejoin="round"/><polyline points="2552.18,569.7 2566,562.35 2551.83,555.7" fill="none" stroke="#6b7079" stroke-width="2" stroke-linecap="round" stroke-linejoin="round"/></g></g><g data-id="E-57"><g><path d="M2401.92 616.12 L2536.2 659.76" fill="none" stroke="#6b7079" stroke-width="2" stroke-linecap="round" stroke-linejoin="round"/><polyline points="2520.72,662.09 2536.2,659.76 2525.05,648.78" fill="none" stroke="#6b7079" stroke-width="2" stroke-linecap="round" stroke-linejoin="round"/></g></g><g data-id="E-58"><g><path d="M2410.82 528.52 L2660 460 L3000 570 L3216.19 500.26" fill="none" stroke="#6b7079" stroke-width="2" stroke-linecap="round" stroke-linejoin="round"/><polyline points="3205.02,511.22 3216.19,500.26 3200.72,497.9" fill="none" stroke="#6b7079" stroke-width="2" stroke-linecap="round" stroke-linejoin="round"/></g></g><g data-id="E-59"><g><path d="M2753.87 535.15 L2876.13 502.79" fill="none" stroke="#6b7079" stroke-width="2" stroke-linecap="round" stroke-linejoin="round"/><polyline points="2864.39,513.14 2876.13,502.79 2860.8,499.61" fill="none" stroke="#6b7079" stroke-width="2" stroke-linecap="round" stroke-linejoin="round"/></g></g><g data-id="E-60"><g><path d="M1943.88 650.87 L2105.74 609.46" fill="none" stroke="#6b7079" stroke-width="2" stroke-linecap="round" stroke-linejoin="round"/><polyline points="2093.91,619.71 2105.74,609.46 2090.44,606.15" fill="none" stroke="#6b7079" stroke-width="2" stroke-linecap="round" stroke-linejoin="round"/></g></g><g data-id="E-61"><g><path d="M2783.99 352.71 L2896.01 346.12" fill="none" stroke="#6b7079" stroke-width="2" stroke-linecap="round" stroke-linejoin="round"/><polyline points="2882.45,353.93 2896.01,346.12 2881.62,339.95" fill="none" stroke="#6b7079" stroke-width="2" stroke-linecap="round" stroke-linejoin="round"/></g></g><g data-id="E-62"><g><path d="M3403.93 488.18 L3496.07 506.01" fill="none" stroke="#6b7079" stroke-width="2" stroke-linecap="round" stroke-linejoin="round"/><polyline points="3481,510.22 3496.07,506.01 3483.65,496.48" fill="none" stroke="#6b7079" stroke-width="2" stroke-linecap="round" stroke-linejoin="round"/></g></g><g data-id="E-63"><g><path d="M3744 530 L3836 530" fill="none" stroke="#6b7079" stroke-width="2" stroke-linecap="round" stroke-linejoin="round"/><polyline points="3822,537 3836,530 3822,523" fill="none" stroke="#6b7079" stroke-width="2" stroke-linecap="round" stroke-linejoin="round"/></g></g><g data-id="E-64"><g><path d="M2784 696.35 L2876 693.65" fill="none" stroke="#6b7079" stroke-width="2" stroke-linecap="round" stroke-linejoin="round"/><polyline points="2862.21,701.06 2876,693.65 2861.8,687.06" fill="none" stroke="#6b7079" stroke-width="2" stroke-linecap="round" stroke-linejoin="round"/></g></g><g data-id="E-65"><g><path d="M1157.5 573.02 L1460 920 L1830 1020 L2260 960 L2660 860 L2876.42 751.79" fill="none" stroke="#6b7079" stroke-width="2" stroke-linecap="round" stroke-linejoin="round"/><polyline points="2867.03,764.31 2876.42,751.79 2860.77,751.79" fill="none" stroke="#6b7079" stroke-width="2" stroke-linecap="round" stroke-linejoin="round"/></g></g><g data-id="E-66"><g><path d="M1869.96 582.53 L2260 900 L2660 800 L2876.19 730.05" fill="none" stroke="#6b7079" stroke-width="2" stroke-linecap="round" stroke-linejoin="round"/><polyline points="2865.02,741.02 2876.19,730.05 2860.71,727.7" fill="none" stroke="#6b7079" stroke-width="2" stroke-linecap="round" stroke-linejoin="round"/></g></g><g data-id="E-67"><g><path d="M3123.84 654.05 L3216.16 627.24" fill="none" stroke="#6b7079" stroke-width="2" stroke-linecap="round" stroke-linejoin="round"/><polyline points="3204.67,637.87 3216.16,627.24 3200.76,624.42" fill="none" stroke="#6b7079" stroke-width="2" stroke-linecap="round" stroke-linejoin="round"/></g></g><g data-id="E-68"><g><path d="M3075.23 371.55 L3216.31 430.71" fill="none" stroke="#6b7079" stroke-width="2" stroke-linecap="round" stroke-linejoin="round"/><polyline points="3200.69,431.75 3216.31,430.71 3206.11,418.84" fill="none" stroke="#6b7079" stroke-width="2" stroke-linecap="round" stroke-linejoin="round"/></g></g><g data-id="E-69"><g><path d="M1521.98 438.17 L1830 280 L2166.77 507.12" fill="none" stroke="#6b7079" stroke-width="2" stroke-linecap="round" stroke-linejoin="round"/><polyline points="2151.25,505.1 2166.77,507.12 2159.08,493.49" fill="none" stroke="#6b7079" stroke-width="2" stroke-linecap="round" stroke-linejoin="round"/></g></g><g data-id="E-70"><rect x="0" y="1080" width="280" height="120" rx="4" fill="#fff0a0" stroke="#9e8000" stroke-width="2" stroke-linecap="round" stroke-linejoin="round"/><g font-size="14" font-family="Inter" font-weight="500" fill="#4a3b05" text-anchor="middle"><text x="140" y="1118.84" xml:space="preserve">Solid arrows are synchronous calls.</text><text x="140" y="1136.34" xml:space="preserve">Labelled arrows carry the event or</text><text x="140" y="1153.84" xml:space="preserve">the reason.</text><text x="140" y="1171.34" xml:space="preserve">Notes are dashboards people read.</text></g></g></g><g data-layer="labels"><g data-id="E-35"><rect x="1221.25" y="583.86" width="110.17" height="24" rx="6" fill="#ffffff" stroke="#e3e5e9" stroke-width="1" stroke-linecap="round" stroke-linejoin="round"/><g font-size="16" font-family="Inter" font-weight="500" fill="#5b616b" text-anchor="middle"><text x="1276.34" y="601.68" xml:space="preserve">verify token</text></g></g><g data-id="E-44"><rect x="2254.11" y="151.06" width="72.92" height="24" rx="6" fill="#ffffff" stroke="#e3e5e9" stroke-width="1" stroke-linecap="round" stroke-linejoin="round"/><g font-size="16" font-family="Inter" font-weight="500" fill="#5b616b" text-anchor="middle"><text x="2290.57" y="168.88" xml:space="preserve">images</text></g></g><g data-id="E-48"><rect x="1596.62" y="742.87" width="71.05" height="24" rx="6" fill="#ffffff" stroke="#e3e5e9" stroke-width="1" stroke-linecap="round" stroke-linejoin="round"/><g font-size="16" font-family="Inter" font-weight="500" fill="#5b616b" text-anchor="middle"><text x="1632.14" y="760.69" xml:space="preserve">charge</text></g></g><g data-id="E-49"><rect x="1593.58" y="830.13" width="60.39" height="24" rx="6" fill="#ffffff" stroke="#e3e5e9" stroke-width="1" stroke-linecap="round" stroke-linejoin="round"/><g font-size="16" font-family="Inter" font-weight="500" fill="#5b616b" text-anchor="middle"><text x="1623.78" y="847.95" xml:space="preserve">score</text></g></g><g data-id="E-50"><rect x="1567.24" y="798.39" width="121.66" height="24" rx="6" fill="#ffffff" stroke="#e3e5e9" stroke-width="1" stroke-linecap="round" stroke-linejoin="round"/><g font-size="16" font-family="Inter" font-weight="500" fill="#5b616b" text-anchor="middle"><text x="1628.07" y="816.21" xml:space="preserve">allow or deny</text></g></g><g data-id="E-53"><rect x="2000.87" y="630.32" width="76.13" height="24" rx="6" fill="#ffffff" stroke="#e3e5e9" stroke-width="1" stroke-linecap="round" stroke-linejoin="round"/><g font-size="16" font-family="Inter" font-weight="500" fill="#5b616b" text-anchor="middle"><text x="2038.94" y="648.14" xml:space="preserve">reserve</text></g></g><g data-id="E-55"><rect x="1938.66" y="545.94" width="123.96" height="24" rx="6" fill="#ffffff" stroke="#e3e5e9" stroke-width="1" stroke-linecap="round" stroke-linejoin="round"/><g font-size="16" font-family="Inter" font-weight="500" fill="#5b616b" text-anchor="middle"><text x="2000.64" y="563.76" xml:space="preserve">order.created</text></g></g><g data-id="E-59"><rect x="2783.8" y="506.97" width="62.41" height="24" rx="6" fill="#ffffff" stroke="#e3e5e9" stroke-width="1" stroke-linecap="round" stroke-linejoin="round"/><g font-size="16" font-family="Inter" font-weight="500" fill="#5b616b" text-anchor="middle"><text x="2815" y="524.79" xml:space="preserve">labels</text></g></g><g data-id="E-60"><rect x="1933.52" y="588.64" width="143.66" height="24" rx="6" fill="#ffffff" stroke="#e3e5e9" stroke-width="1" stroke-linecap="round" stroke-linejoin="round"/><g font-size="16" font-family="Inter" font-weight="500" fill="#5b616b" text-anchor="middle"><text x="2005.35" y="606.46" xml:space="preserve">payment.settled</text></g></g><g data-id="E-61"><rect x="2791.37" y="380.32" width="182.25" height="24" rx="6" fill="#ffffff" stroke="#e3e5e9" stroke-width="1" stroke-linecap="round" stroke-linejoin="round"/><g font-size="16" font-family="Inter" font-weight="500" fill="#5b616b" text-anchor="middle"><text x="2882.49" y="398.14" xml:space="preserve">streaming replication</text></g></g><g data-id="E-67"><rect x="3139.98" y="628.65" width="60.05" height="24" rx="6" fill="#ffffff" stroke="#e3e5e9" stroke-width="1" stroke-linecap="round" stroke-linejoin="round"/><g font-size="16" font-family="Inter" font-weight="500" fill="#5b616b" text-anchor="middle"><text x="3170" y="646.47" xml:space="preserve">alerts</text></g></g><g data-id="E-69"><rect x="1794.37" y="284.76" width="120.96" height="24" rx="6" fill="#ffffff" stroke="#e3e5e9" stroke-width="1" stroke-linecap="round" stroke-linejoin="round"/><g font-size="16" font-family="Inter" font-weight="500" fill="#5b616b" text-anchor="middle"><text x="1854.85" y="302.58" xml:space="preserve">user.updated</text></g></g></g><g data-layer="overlays"></g></svg>
