<svg xmlns="http://www.w3.org/2000/svg" width="974" height="1024" viewBox="-40 -40 2680 2818"><defs><filter id="synapse-elev-1" x="-50%" y="-50%" width="200%" height="200%" color-interpolation-filters="sRGB"><feGaussianBlur in="SourceAlpha" stdDeviation="1" result="b0"/><feOffset in="b0" dx="0" dy="1" result="o0"/><feFlood flood-color="#101828" flood-opacity="0.06" result="f0"/><feComposite in="f0" in2="o0" operator="in" result="s0"/><feGaussianBlur in="SourceAlpha" stdDeviation="1.5" result="b1"/><feOffset in="b1" dx="0" dy="1" result="o1"/><feFlood flood-color="#101828" flood-opacity="0.1" result="f1"/><feComposite in="f1" in2="o1" operator="in" result="s1"/><feMerge><feMergeNode in="s0"/><feMergeNode in="s1"/><feMergeNode in="SourceGraphic"/></feMerge></filter></defs><rect x="-40" y="-40" width="2680" height="2818" fill="#f7f8fa"/><g data-layer="zones"><g data-id="E-4"><rect x="0" y="245" width="1200" height="520" rx="16" fill="#f0f1f4" stroke="#d9dce1" stroke-width="2.75" stroke-linecap="round" stroke-linejoin="round"/><g font-size="33.02" font-family="Inter" font-weight="600" fill="#1c2024" text-anchor="start"><text x="0" y="236.42" xml:space="preserve">A grid section that stretches</text></g></g><g data-id="E-11"><rect x="1280" y="245" width="340" height="1180" rx="16" fill="#f0f1f4" stroke="#d9dce1" stroke-width="2.75" stroke-linecap="round" stroke-linejoin="round"/><g font-size="33.02" font-family="Inter" font-weight="600" fill="#1c2024" text-anchor="start"><text x="1280" y="236.42" xml:space="preserve">Callouts</text></g></g><g data-id="E-19"><rect x="0" y="805" width="700" height="200" rx="16" fill="#f0f1f4" stroke="#d9dce1" stroke-width="2.75" stroke-linecap="round" stroke-linejoin="round"/><g font-size="33.02" font-family="Inter" font-weight="600" fill="#1c2024" text-anchor="start"><text x="0" y="796.42" xml:space="preserve">Badges and icons</text></g></g><g data-id="E-27"><rect x="1640" y="1040" width="960" height="400" rx="16" fill="#f0f1f4" stroke="#d9dce1" stroke-width="2.75" stroke-linecap="round" stroke-linejoin="round"/><g font-size="33.02" font-family="Inter" font-weight="600" fill="#1c2024" text-anchor="start"><text x="1640" y="1031.42" xml:space="preserve">An ordinal timeline</text></g><polyline points="1672,1248 2552,1248" fill="none" stroke="#6b7079" stroke-width="2" stroke-linecap="round" stroke-linejoin="round"/><polyline points="1782,1232 1782,1243" fill="none" stroke="#6b7079" stroke-width="1" stroke-linecap="round" stroke-linejoin="round"/><ellipse cx="1782" cy="1248" rx="5" ry="5" fill="#3a3f47" stroke="#ffffff" stroke-width="1.5" stroke-linecap="round" stroke-linejoin="round"/><polyline points="2002,1253 2002,1292" fill="none" stroke="#6b7079" stroke-width="1" stroke-linecap="round" stroke-linejoin="round"/><ellipse cx="2002" cy="1248" rx="5" ry="5" fill="#1e66c9" stroke="#ffffff" stroke-width="1.5" stroke-linecap="round" stroke-linejoin="round"/><polyline points="2222,1232 2222,1243" fill="none" stroke="#6b7079" stroke-width="1" stroke-linecap="round" stroke-linejoin="round"/><ellipse cx="2222" cy="1248" rx="5" ry="5" fill="#3a3f47" stroke="#ffffff" stroke-width="1.5" stroke-linecap="round" stroke-linejoin="round"/><polyline points="2442,1253 2442,1292" fill="none" stroke="#6b7079" stroke-width="1" stroke-linecap="round" stroke-linejoin="round"/><polygon points="2442,1240 2450,1248 2442,1256 2434,1248" fill="#1d7a47" stroke="#ffffff" stroke-width="1.5" stroke-linecap="round" stroke-linejoin="round"/></g><g data-id="E-32"><rect x="0" y="1381" width="900" height="720" rx="16" fill="#f0f1f4" stroke="#d9dce1" stroke-width="2.75" stroke-linecap="round" stroke-linejoin="round"/><g font-size="33.02" font-family="Inter" font-weight="600" fill="#1c2024" text-anchor="start"><text x="0" y="1372.42" xml:space="preserve">A tree of node kinds</text></g></g></g><g data-layer="marks"><g data-id="E-1"><g font-size="48" font-family="Inter" font-weight="700" fill="#1c2024" text-anchor="start"><text x="0" y="47.46" xml:space="preserve">Every block kind, less common</text><text x="0" y="107.46" xml:space="preserve">options</text></g></g><g data-id="E-2"><g font-size="36" font-family="Inter" font-weight="700" fill="#1c2024" text-anchor="start"><text x="0" y="195.6" xml:space="preserve">Level two heading</text></g></g><g data-id="E-3"><g font-size="28" font-family="Inter" font-weight="600" fill="#2f2468" text-anchor="middle"><text x="550.5" y="187.69" xml:space="preserve">Level three, centred</text></g></g><g data-id="E-5"><rect x="20" y="325" width="360" height="80" rx="12" fill="#ffffff" stroke="#d9dce1" stroke-width="1" stroke-linecap="round" stroke-linejoin="round" filter="url(#synapse-elev-1)"/><g font-size="20" font-family="Inter" font-weight="600" fill="#1c2024" text-anchor="start"><text x="36" y="360.78" xml:space="preserve">Small</text></g></g><g data-id="E-6"><rect x="420" y="325" width="360" height="140" rx="12" fill="#5b45c4" stroke="#5b45c4" stroke-width="1" stroke-linecap="round" stroke-linejoin="round" filter="url(#synapse-elev-1)"/><g font-size="20" font-family="Inter" font-weight="600" fill="#ffffff" text-anchor="start"><text x="436" y="360.78" xml:space="preserve">Large card</text></g><g font-size="16" font-family="Inter" font-weight="400" fill="#ffffff" text-anchor="start"><text x="452" y="385.82" xml:space="preserve">first point</text></g><g font-size="16" font-family="Inter" font-weight="400" fill="#ffffff" text-anchor="start"><text x="438" y="385.82" xml:space="preserve">•</text></g><g font-size="16" font-family="Inter" font-weight="400" fill="#ffffff" text-anchor="start"><text x="452" y="405.82" xml:space="preserve">second point that wraps across the line</text></g><g font-size="16" font-family="Inter" font-weight="400" fill="#ffffff" text-anchor="start"><text x="438" y="405.82" xml:space="preserve">•</text></g><g font-size="16" font-family="Inter" font-weight="400" fill="#ffffff" text-anchor="start"><text x="452" y="425.82" xml:space="preserve">third</text></g><g font-size="16" font-family="Inter" font-weight="400" fill="#ffffff" text-anchor="start"><text x="438" y="425.82" xml:space="preserve">•</text></g></g><g data-id="E-7"><rect x="820" y="325" width="360" height="120" rx="12" fill="#ffffff" stroke="#d9dce1" stroke-width="1" stroke-linecap="round" stroke-linejoin="round" filter="url(#synapse-elev-1)"/><rect x="826" y="335" width="4" height="100" rx="2" fill="#c42a30" stroke="none"/><g font-size="20" font-family="Inter" font-weight="600" fill="#1c2024" text-anchor="start"><text x="836" y="360.78" xml:space="preserve">Outline</text></g><rect x="836" y="374" width="54.78" height="20" rx="10" fill="#fdecec" stroke="none"/><g font-size="12" font-family="Inter" font-weight="500" fill="#6b1519" text-anchor="middle"><text x="863.39" y="388.37" xml:space="preserve">urgent</text></g><rect x="898.78" y="374" width="30.72" height="20" rx="10" fill="#ffffff" stroke="#d9dce1" stroke-width="1" stroke-linecap="round" stroke-linejoin="round"/><g font-size="12" font-family="Inter" font-weight="500" fill="#1c2024" text-anchor="middle"><text x="914.14" y="388.37" xml:space="preserve">v2</text></g><ellipse cx="845" cy="412" rx="9" ry="9" fill="#1c2024" stroke="none"/><g font-size="8" font-family="Inter" font-weight="600" fill="#ffffff" text-anchor="middle"><text x="845" y="414.91" xml:space="preserve">OP</text></g><g font-size="12" font-family="Inter" font-weight="500" fill="#5b616b" text-anchor="start"><text x="860" y="416.37" xml:space="preserve">human</text></g><ellipse cx="916.3" cy="412" rx="4" ry="4" fill="#c42a30" stroke="none"/><g font-size="12" font-family="Inter" font-weight="500" fill="#5b616b" text-anchor="start"><text x="926.3" y="416.37" xml:space="preserve">blocked</text></g></g><g data-id="E-8"><rect x="20" y="505" width="160" height="160" rx="4" fill="#c9ecd3" stroke="none" filter="url(#synapse-elev-1)"/><g font-size="20" font-family="Inter" font-weight="500" fill="#15452c" text-anchor="middle"><text x="100" y="592.28" xml:space="preserve">Small sticky</text></g></g><g data-id="E-9"><rect x="420" y="505" width="240" height="240" rx="4" fill="#ffdcbd" stroke="none" filter="url(#synapse-elev-1)"/><g font-size="20" font-family="Inter" font-weight="500" fill="#5c2a07" text-anchor="middle"><text x="540" y="632.28" xml:space="preserve">Large sticky</text></g></g><g data-id="E-10"><g transform="matrix(2.67 0 0 2.67 968 505)"><path d="M12 15 L12 20 C12 20 15.03 19.45 16 18 C17.08 16.38 16 13 16 13 M4.5 16.5 C3 17.76 2.5 21.5 2.5 21.5 C2.5 21.5 6.24 21 7.5 19.5 C8.21 18.66 8.2 17.37 7.41 16.59 L7.26 16.46 L7.1 16.34 L6.93 16.24 L6.75 16.16 L6.56 16.09 L6.37 16.04 L6.17 16 L5.97 15.99 L5.77 15.99 L5.58 16.01 L5.38 16.05 L5.19 16.11 L5 16.18 L4.83 16.27 L4.66 16.38 L4.5 16.5" fill="none" stroke="#2f2468" stroke-width="2" stroke-linecap="round" stroke-linejoin="round"/><path d="M9 12 L9.1 11.74 L9.21 11.49 L9.31 11.23 L9.42 10.98 L9.54 10.72 L9.66 10.47 L9.78 10.22 L9.9 9.97 L10.03 9.73 L10.16 9.48 L10.29 9.24 L10.43 9 L10.56 8.76 L10.71 8.52 L10.85 8.28 L11 8.05 L11.46 7.37 L11.96 6.72 L12.49 6.1 L13.07 5.52 L13.68 4.98 L14.33 4.47 L15.01 4.01 L15.71 3.59 L16.44 3.22 L17.2 2.9 L17.97 2.62 L18.75 2.39 L19.55 2.22 L20.36 2.09 L21.18 2.02 L22 2 C22 4.72 21.22 9.5 16 13 L15.76 13.15 L15.52 13.29 L15.28 13.44 L15.04 13.57 L14.79 13.71 L14.55 13.84 L14.3 13.97 L14.05 14.1 L13.8 14.22 L13.55 14.34 L13.29 14.46 L13.04 14.58 L12.78 14.69 L12.52 14.79 L12.26 14.9 L12 15 Z" fill="none" stroke="#2f2468" stroke-width="2" stroke-linecap="round" stroke-linejoin="round"/><path d="M9 12 L4 12 C4 12 4.55 8.97 6 8 C7.62 6.92 11 8.05 11 8.05" fill="none" stroke="#2f2468" stroke-width="2" stroke-linecap="round" stroke-linejoin="round"/></g><g font-size="12" font-family="Inter" font-weight="500" fill="#5b616b" text-anchor="middle"><text x="1000" y="586.87" xml:space="preserve">Launch</text></g></g><g data-id="E-12"><rect x="1312" y="337" width="240" height="80" rx="8" fill="#e8f2fe" stroke="none"/><rect x="1312" y="337" width="4" height="80" rx="2" fill="#1e66c9" stroke="none"/><g transform="matrix(0.83 0 0 0.83 1332 351)"><path d="M22 12 C22 17.52 17.52 22 12 22 C6.48 22 2 17.52 2 12 C2 6.48 6.48 2 12 2 C17.52 2 22 6.48 22 12 Z" fill="none" stroke="#0b3a6e" stroke-width="2" stroke-linecap="round" stroke-linejoin="round"/><path d="M12 16 L12 12 M12 8 L12.01 8" fill="none" stroke="#0b3a6e" stroke-width="2" stroke-linecap="round" stroke-linejoin="round"/></g><g font-size="16" font-family="Inter" font-weight="600" fill="#0b3a6e" text-anchor="start"><text x="1360" y="366.82" xml:space="preserve">Note</text></g><g font-size="16" font-family="Inter" font-weight="400" fill="#0b3a6e" text-anchor="start"><text x="1360" y="390.82" xml:space="preserve">A note callout body</text></g></g><g data-id="E-13"><rect x="1312" y="497" width="240" height="80" rx="8" fill="#e7f6ec" stroke="none"/><rect x="1312" y="497" width="4" height="80" rx="2" fill="#1d7a47" stroke="none"/><g transform="matrix(0.83 0 0 0.83 1332 511)"><path d="M15 14 C15.2 13 15.7 12.3 16.5 11.5 C17.5 10.6 18 9.3 18 8 L17.88 6.83 L17.54 5.7 L16.99 4.67 L16.24 3.76 L15.33 3.01 L14.3 2.46 L13.17 2.12 L12 2 L10.83 2.12 L9.7 2.46 L8.67 3.01 L7.76 3.76 L7.01 4.67 L6.46 5.7 L6.12 6.83 L6 8 C6 9 6.2 10.2 7.5 11.5 C8.2 12.2 8.8 13 9 14 M9 18 L15 18 M10 22 L14 22" fill="none" stroke="#15452c" stroke-width="2" stroke-linecap="round" stroke-linejoin="round"/></g><g font-size="16" font-family="Inter" font-weight="600" fill="#15452c" text-anchor="start"><text x="1360" y="526.82" xml:space="preserve">Tip</text></g><g font-size="16" font-family="Inter" font-weight="400" fill="#15452c" text-anchor="start"><text x="1360" y="550.82" xml:space="preserve">A tip callout body</text></g></g><g data-id="E-14"><rect x="1312" y="657" width="260" height="80" rx="8" fill="#f1eefe" stroke="none"/><rect x="1312" y="657" width="4" height="80" rx="2" fill="#5b45c4" stroke="none"/><g transform="matrix(0.83 0 0 0.83 1332 671)"><path d="M11.53 2.29 L11.56 2.23 L11.61 2.17 L11.66 2.12 L11.72 2.08 L11.79 2.05 L11.85 2.02 L11.93 2.01 L12 2 L12.07 2.01 L12.15 2.02 L12.21 2.05 L12.28 2.08 L12.34 2.12 L12.39 2.17 L12.44 2.23 L12.47 2.29 L14.79 6.97 L14.85 7.09 L14.91 7.2 L14.99 7.3 L15.06 7.4 L15.15 7.5 L15.24 7.59 L15.34 7.67 L15.44 7.75 L15.55 7.82 L15.66 7.89 L15.77 7.95 L15.89 8 L16.01 8.04 L16.13 8.08 L16.25 8.11 L16.38 8.13 L21.55 8.89 L21.62 8.91 L21.69 8.93 L21.75 8.97 L21.81 9.01 L21.86 9.06 L21.91 9.12 L21.95 9.18 L21.97 9.25 L21.99 9.32 L22 9.4 L22 9.47 L21.98 9.54 L21.96 9.61 L21.93 9.68 L21.89 9.74 L21.84 9.79 L18.1 13.43 L18.01 13.52 L17.93 13.62 L17.85 13.72 L17.78 13.83 L17.72 13.94 L17.66 14.06 L17.61 14.17 L17.57 14.3 L17.53 14.42 L17.5 14.54 L17.48 14.67 L17.47 14.8 L17.46 14.93 L17.46 15.05 L17.48 15.18 L17.49 15.31 L18.38 20.45 L18.38 20.52 L18.38 20.6 L18.37 20.67 L18.34 20.74 L18.31 20.81 L18.27 20.87 L18.22 20.92 L18.16 20.97 L18.1 21.01 L18.03 21.04 L17.96 21.06 L17.89 21.07 L17.82 21.07 L17.74 21.06 L17.67 21.04 L17.6 21.01 L12.99 18.58 L12.87 18.53 L12.75 18.48 L12.63 18.43 L12.51 18.4 L12.38 18.37 L12.26 18.35 L12.13 18.34 L12 18.34 L11.87 18.34 L11.74 18.35 L11.62 18.37 L11.49 18.4 L11.37 18.43 L11.25 18.48 L11.13 18.53 L11.01 18.58 L6.4 21.01 L6.33 21.04 L6.26 21.06 L6.18 21.07 L6.11 21.07 L6.04 21.06 L5.97 21.04 L5.9 21.01 L5.84 20.97 L5.78 20.92 L5.73 20.87 L5.69 20.81 L5.66 20.74 L5.63 20.67 L5.62 20.6 L5.62 20.52 L5.63 20.45 L6.51 15.31 L6.52 15.18 L6.54 15.06 L6.54 14.93 L6.53 14.8 L6.52 14.67 L6.5 14.54 L6.47 14.42 L6.43 14.3 L6.39 14.18 L6.34 14.06 L6.28 13.94 L6.22 13.83 L6.15 13.72 L6.07 13.62 L5.99 13.52 L5.9 13.43 L2.16 9.79 L2.11 9.74 L2.07 9.68 L2.04 9.61 L2.01 9.54 L2 9.47 L2 9.4 L2.01 9.32 L2.02 9.25 L2.05 9.18 L2.09 9.12 L2.13 9.06 L2.19 9.01 L2.25 8.96 L2.31 8.93 L2.38 8.9 L2.45 8.89 L7.62 8.13 L7.75 8.11 L7.87 8.08 L7.99 8.04 L8.11 8 L8.23 7.95 L8.34 7.89 L8.45 7.82 L8.56 7.75 L8.66 7.67 L8.76 7.59 L8.85 7.5 L8.94 7.4 L9.02 7.3 L9.09 7.2 L9.16 7.09 L9.22 6.97 Z" fill="none" stroke="#2f2468" stroke-width="2" stroke-linecap="round" stroke-linejoin="round"/></g><g font-size="16" font-family="Inter" font-weight="600" fill="#2f2468" text-anchor="start"><text x="1360" y="686.82" xml:space="preserve">Important</text></g><g font-size="16" font-family="Inter" font-weight="400" fill="#2f2468" text-anchor="start"><text x="1360" y="710.82" xml:space="preserve">A important callout body</text></g></g><g data-id="E-15"><rect x="1312" y="817" width="260" height="80" rx="8" fill="#fff0e3" stroke="none"/><rect x="1312" y="817" width="4" height="80" rx="2" fill="#b8520c" stroke="none"/><g transform="matrix(0.83 0 0 0.83 1332 831)"><path d="M21.73 18 L13.73 4 L13.59 3.78 L13.41 3.58 L13.22 3.41 L13 3.26 L12.76 3.14 L12.51 3.06 L12.25 3 L11.99 2.99 L11.73 3 L11.47 3.06 L11.22 3.14 L10.98 3.26 L10.76 3.41 L10.57 3.58 L10.39 3.78 L10.25 4 L2.25 18 L2.13 18.24 L2.05 18.48 L2 18.74 L1.98 19 L2 19.27 L2.05 19.52 L2.14 19.77 L2.25 20.01 L2.4 20.23 L2.58 20.42 L2.77 20.59 L2.99 20.74 L3.23 20.85 L3.48 20.94 L3.74 20.99 L4 21 L20 21 L20.26 20.98 L20.52 20.93 L20.76 20.85 L21 20.73 L21.22 20.59 L21.41 20.41 L21.59 20.22 L21.73 20 L21.85 19.76 L21.93 19.52 L21.98 19.26 L22 19 L21.98 18.74 L21.93 18.48 L21.85 18.23 L21.73 18 M12 9 L12 13 M12 17 L12.01 17" fill="none" stroke="#5c2a07" stroke-width="2" stroke-linecap="round" stroke-linejoin="round"/></g><g font-size="16" font-family="Inter" font-weight="600" fill="#5c2a07" text-anchor="start"><text x="1360" y="846.82" xml:space="preserve">Warning</text></g><g font-size="16" font-family="Inter" font-weight="400" fill="#5c2a07" text-anchor="start"><text x="1360" y="870.82" xml:space="preserve">A warning callout body</text></g></g><g data-id="E-16"><rect x="1312" y="977" width="240" height="80" rx="8" fill="#fdecec" stroke="none"/><rect x="1312" y="977" width="4" height="80" rx="2" fill="#c42a30" stroke="none"/><g transform="matrix(0.83 0 0 0.83 1332 991)"><path d="M12 16 L12.01 16 M12 8 L12 12 M15.31 2 L15.41 2 L15.51 2.01 L15.61 2.02 L15.7 2.04 L15.8 2.06 L15.89 2.09 L15.99 2.12 L16.08 2.15 L16.17 2.19 L16.25 2.24 L16.34 2.28 L16.42 2.34 L16.5 2.39 L16.58 2.45 L16.65 2.52 L16.73 2.59 L21.41 7.27 L21.48 7.35 L21.55 7.42 L21.61 7.5 L21.66 7.58 L21.72 7.66 L21.76 7.75 L21.81 7.83 L21.85 7.92 L21.88 8.01 L21.91 8.11 L21.94 8.2 L21.96 8.3 L21.98 8.39 L21.99 8.49 L22 8.59 L22 8.69 L22 15.31 L22 15.41 L21.99 15.51 L21.98 15.61 L21.96 15.7 L21.94 15.8 L21.91 15.89 L21.88 15.99 L21.85 16.08 L21.81 16.17 L21.76 16.25 L21.72 16.34 L21.66 16.42 L21.61 16.5 L21.55 16.58 L21.48 16.65 L21.41 16.73 L16.73 21.41 L16.65 21.48 L16.58 21.55 L16.5 21.61 L16.42 21.66 L16.34 21.72 L16.25 21.76 L16.17 21.81 L16.08 21.85 L15.99 21.88 L15.89 21.91 L15.8 21.94 L15.7 21.96 L15.61 21.98 L15.51 21.99 L15.41 22 L15.31 22 L8.69 22 L8.59 22 L8.49 21.99 L8.39 21.98 L8.3 21.96 L8.2 21.94 L8.11 21.91 L8.01 21.88 L7.92 21.85 L7.83 21.81 L7.75 21.76 L7.66 21.72 L7.58 21.66 L7.5 21.61 L7.42 21.55 L7.35 21.48 L7.27 21.41 L2.59 16.73 L2.52 16.65 L2.45 16.58 L2.39 16.5 L2.34 16.42 L2.28 16.34 L2.24 16.25 L2.19 16.17 L2.15 16.08 L2.12 15.99 L2.09 15.89 L2.06 15.8 L2.04 15.7 L2.02 15.61 L2.01 15.51 L2 15.41 L2 15.31 L2 8.69 L2 8.59 L2.01 8.49 L2.02 8.39 L2.04 8.3 L2.06 8.2 L2.09 8.11 L2.12 8.01 L2.15 7.92 L2.19 7.83 L2.24 7.75 L2.28 7.66 L2.34 7.58 L2.39 7.5 L2.45 7.42 L2.52 7.35 L2.59 7.27 L7.27 2.59 L7.35 2.52 L7.42 2.45 L7.5 2.39 L7.58 2.34 L7.66 2.28 L7.75 2.24 L7.83 2.19 L7.92 2.15 L8.01 2.12 L8.11 2.09 L8.2 2.06 L8.3 2.04 L8.39 2.02 L8.49 2.01 L8.59 2 L8.69 2 Z" fill="none" stroke="#6b1519" stroke-width="2" stroke-linecap="round" stroke-linejoin="round"/></g><g font-size="16" font-family="Inter" font-weight="600" fill="#6b1519" text-anchor="start"><text x="1360" y="1006.82" xml:space="preserve">Danger</text></g><g font-size="16" font-family="Inter" font-weight="400" fill="#6b1519" text-anchor="start"><text x="1360" y="1030.82" xml:space="preserve">A danger callout body</text></g></g><g data-id="E-17"><rect x="1312" y="1137" width="260" height="80" rx="8" fill="#e3f6f3" stroke="none"/><rect x="1312" y="1137" width="4" height="80" rx="2" fill="#0d7a6c" stroke="none"/><g transform="matrix(0.83 0 0 0.83 1332 1151)"><path d="M12 3 L12 21 M19 8 L22 16 L21.67 16.23 L21.32 16.43 L20.96 16.6 L20.58 16.74 L20.19 16.86 L19.8 16.94 L19.4 16.98 L19 17 L18.6 16.98 L18.2 16.94 L17.81 16.86 L17.42 16.74 L17.04 16.6 L16.68 16.43 L16.33 16.23 L16 16 Z L19 7" fill="none" stroke="#0f433c" stroke-width="2" stroke-linecap="round" stroke-linejoin="round"/><path d="M3 7 L4 7 L4.52 6.99 L5.04 6.97 L5.56 6.93 L6.08 6.87 L6.59 6.8 L7.11 6.71 L7.62 6.61 L8.12 6.49 L8.63 6.36 L9.12 6.21 L9.62 6.04 L10.11 5.87 L10.59 5.67 L11.07 5.46 L11.54 5.24 L12 5 L12.46 5.24 L12.93 5.46 L13.41 5.67 L13.89 5.87 L14.38 6.04 L14.88 6.21 L15.37 6.36 L15.88 6.49 L16.38 6.61 L16.89 6.71 L17.41 6.8 L17.92 6.87 L18.44 6.93 L18.96 6.97 L19.48 6.99 L20 7 L21 7 M5 8 L8 16 L7.67 16.23 L7.32 16.43 L6.96 16.6 L6.58 16.74 L6.19 16.86 L5.8 16.94 L5.4 16.98 L5 17 L4.6 16.98 L4.2 16.94 L3.81 16.86 L3.42 16.74 L3.04 16.6 L2.68 16.43 L2.33 16.23 L2 16 Z L5 7 M7 21 L17 21" fill="none" stroke="#0f433c" stroke-width="2" stroke-linecap="round" stroke-linejoin="round"/></g><g font-size="16" font-family="Inter" font-weight="600" fill="#0f433c" text-anchor="start"><text x="1360" y="1166.82" xml:space="preserve">Decision</text></g><g font-size="16" font-family="Inter" font-weight="400" fill="#0f433c" text-anchor="start"><text x="1360" y="1190.82" xml:space="preserve">A decision callout body</text></g></g><g data-id="E-18"><rect x="1312" y="1297" width="260" height="80" rx="8" fill="#fff8d1" stroke="none"/><rect x="1312" y="1297" width="4" height="80" rx="2" fill="#8f6d00" stroke="none"/><g transform="matrix(0.83 0 0 0.83 1332 1311)"><path d="M22 12 C22 17.52 17.52 22 12 22 C6.48 22 2 17.52 2 12 C2 6.48 6.48 2 12 2 C17.52 2 22 6.48 22 12 Z" fill="none" stroke="#4a3b05" stroke-width="2" stroke-linecap="round" stroke-linejoin="round"/><path d="M9.09 9 L9.31 8.52 L9.6 8.09 L9.97 7.71 L10.4 7.41 L10.87 7.18 L11.38 7.04 L11.9 7 L12.43 7.04 L12.94 7.17 L13.41 7.39 L13.84 7.69 L14.22 8.06 L14.52 8.49 L14.74 8.97 L14.87 9.48 L14.92 10 C14.92 12 11.92 13 11.92 13 M12 17 L12.01 17" fill="none" stroke="#4a3b05" stroke-width="2" stroke-linecap="round" stroke-linejoin="round"/></g><g font-size="16" font-family="Inter" font-weight="600" fill="#4a3b05" text-anchor="start"><text x="1360" y="1326.82" xml:space="preserve">Question</text></g><g font-size="16" font-family="Inter" font-weight="400" fill="#4a3b05" text-anchor="start"><text x="1360" y="1350.82" xml:space="preserve">A question callout body</text></g></g><g data-id="E-20"><rect x="32" y="897" width="43" height="24" rx="12" fill="#e8f2fe" stroke="none"/><g font-size="14" font-family="Inter" font-weight="500" fill="#0b3a6e" text-anchor="start"><text x="40" y="914.09" xml:space="preserve">soft</text></g></g><g data-id="E-21"><rect x="115" y="897" width="67" height="24" rx="12" fill="#1d7a47" stroke="none"/><g transform="matrix(0.58 0 0 0.58 123 902)"><path d="M20 6 L9 17 L4 12" fill="none" stroke="#ffffff" stroke-width="2" stroke-linecap="round" stroke-linejoin="round"/></g><g font-size="14" font-family="Inter" font-weight="500" fill="#ffffff" text-anchor="start"><text x="141" y="914.09" xml:space="preserve">solid</text></g></g><g data-id="E-22"><rect x="222" y="897" width="91" height="20" rx="10" fill="#ffffff" stroke="#cc6a1e" stroke-width="1" stroke-linecap="round" stroke-linejoin="round"/><g font-size="12" font-family="Inter" font-weight="500" fill="#5c2a07" text-anchor="start"><text x="230" y="911.37" xml:space="preserve">outline small</text></g></g><g data-id="E-23"><g transform="matrix(1 0 0 1 353 897)"><path d="M21 5 C21 6.66 16.97 8 12 8 C7.03 8 3 6.66 3 5 C3 3.34 7.03 2 12 2 C16.97 2 21 3.34 21 5 Z" fill="none" stroke="#1c2024" stroke-width="2" stroke-linecap="round" stroke-linejoin="round"/><path d="M3 5 L3 19 L3.17 19.59 L3.69 20.15 L4.52 20.67 L5.64 21.12 L7 21.49 L8.56 21.77 L10.24 21.94 L12 22 L13.76 21.94 L15.44 21.77 L17 21.49 L18.36 21.12 L19.48 20.67 L20.31 20.15 L20.83 19.59 L21 19 L21 5" fill="none" stroke="#1c2024" stroke-width="2" stroke-linecap="round" stroke-linejoin="round"/><path d="M3 12 L3.17 12.59 L3.69 13.15 L4.52 13.67 L5.64 14.12 L7 14.49 L8.56 14.77 L10.24 14.94 L12 15 L13.76 14.94 L15.44 14.77 L17 14.49 L18.36 14.12 L19.48 13.67 L20.31 13.15 L20.83 12.59 L21 12" fill="none" stroke="#1c2024" stroke-width="2" stroke-linecap="round" stroke-linejoin="round"/></g></g><g data-id="E-24"><g transform="matrix(1.33 0 0 1.33 478 897)"><path d="M22 7.7 C22 7.1 21.6 6.5 21.2 6.2 L14.9 2.3 L14.8 2.25 L14.7 2.2 L14.6 2.16 L14.49 2.13 L14.38 2.11 L14.27 2.09 L14.16 2.08 L14.05 2.08 L13.94 2.08 L13.83 2.09 L13.72 2.11 L13.61 2.13 L13.5 2.16 L13.4 2.2 L13.3 2.25 L13.2 2.3 L2.9 8.3 C2.4 8.5 2 9.1 2 9.7 L2 16.3 C2 16.8 2.4 17.5 2.8 17.8 L9.1 21.7 L9.2 21.75 L9.3 21.8 L9.4 21.84 L9.51 21.87 L9.62 21.89 L9.73 21.91 L9.84 21.92 L9.95 21.92 L10.06 21.92 L10.17 21.91 L10.28 21.89 L10.39 21.87 L10.5 21.84 L10.6 21.8 L10.7 21.75 L10.8 21.7 L21.1 15.7 C21.6 15.4 22 14.7 22 14.2 Z" fill="none" stroke="#1c2024" stroke-width="2" stroke-linecap="round" stroke-linejoin="round"/><path d="M10 21.9 L10 14 L2.1 9.1 M10 14 L21.9 7.1 M14 19.8 L14 11.7 M18 17.5 L18 9.4" fill="none" stroke="#1c2024" stroke-width="2" stroke-linecap="round" stroke-linejoin="round"/></g><g font-size="12" font-family="Inter" font-weight="500" fill="#5b616b" text-anchor="middle"><text x="494" y="946.87" xml:space="preserve">A long label under an icon</text><text x="494" y="961.87" xml:space="preserve">that wraps</text></g></g><g data-id="E-25"><g transform="matrix(2 0 0 2 611 897)"><path d="M16 21 L16 19 L15.98 18.61 L15.92 18.22 L15.83 17.84 L15.7 17.47 L15.53 17.11 L15.33 16.78 L15.09 16.46 L14.83 16.17 L14.54 15.91 L14.22 15.67 L13.89 15.47 L13.53 15.3 L13.16 15.17 L12.78 15.08 L12.39 15.02 L12 15 L6 15 L5.61 15.02 L5.22 15.08 L4.84 15.17 L4.47 15.3 L4.11 15.47 L3.78 15.67 L3.46 15.91 L3.17 16.17 L2.91 16.46 L2.67 16.78 L2.47 17.11 L2.3 17.47 L2.17 17.84 L2.08 18.22 L2.02 18.61 L2 19 L2 21 M16 3.13 L16.62 3.34 L17.2 3.66 L17.72 4.07 L18.16 4.55 L18.52 5.1 L18.78 5.71 L18.94 6.34 L19 7 L18.94 7.66 L18.78 8.29 L18.52 8.9 L18.16 9.45 L17.72 9.93 L17.2 10.34 L16.62 10.66 L16 10.87 M22 21 L22 19 L21.99 18.67 L21.95 18.34 L21.88 18.02 L21.78 17.71 L21.66 17.4 L21.52 17.1 L21.35 16.82 L21.16 16.55 L20.95 16.3 L20.72 16.07 L20.47 15.85 L20.2 15.66 L19.92 15.49 L19.62 15.35 L19.32 15.23 L19 15.13" fill="none" stroke="#15452c" stroke-width="2" stroke-linecap="round" stroke-linejoin="round"/><path d="M13 7 C13 9.21 11.21 11 9 11 C6.79 11 5 9.21 5 7 C5 4.79 6.79 3 9 3 C11.21 3 13 4.79 13 7 Z" fill="none" stroke="#15452c" stroke-width="2" stroke-linecap="round" stroke-linejoin="round"/></g></g><g data-id="E-26"><rect x="0" y="1045" width="520" height="256" rx="8" fill="#ffffff" stroke="#d9dce1" stroke-width="1" stroke-linecap="round" stroke-linejoin="round"/><g font-size="16" font-family="Inter" font-weight="600" fill="#1c2024" text-anchor="start"><text x="12" y="1070.82" xml:space="preserve">A small zebra table</text></g><rect x="1" y="1085" width="518" height="40" fill="#f0f1f4" stroke="none"/><rect x="1" y="1165" width="518" height="56" fill="#f0f1f4" stroke="none" opacity="0.5"/><rect x="1" y="1221" width="518" height="40" fill="#e7f6ec" stroke="none"/><rect x="1" y="1261" width="518" height="40" fill="#f0f1f4" stroke="none" opacity="0.5"/><polyline points="0,1085 520,1085" fill="none" stroke="#e3e5e9" stroke-width="1" stroke-linecap="round" stroke-linejoin="round"/><polyline points="0,1125 520,1125" fill="none" stroke="#e3e5e9" stroke-width="1" stroke-linecap="round" stroke-linejoin="round"/><polyline points="0,1165 520,1165" fill="none" stroke="#e3e5e9" stroke-width="1" stroke-linecap="round" stroke-linejoin="round"/><polyline points="0,1221 520,1221" fill="none" stroke="#e3e5e9" stroke-width="1" stroke-linecap="round" stroke-linejoin="round"/><polyline points="0,1261 520,1261" fill="none" stroke="#e3e5e9" stroke-width="1" stroke-linecap="round" stroke-linejoin="round"/><polyline points="120,1085 120,1301" fill="none" stroke="#e3e5e9" stroke-width="1" stroke-linecap="round" stroke-linejoin="round"/><polyline points="440,1085 440,1301" fill="none" stroke="#e3e5e9" stroke-width="1" stroke-linecap="round" stroke-linejoin="round"/><g font-size="16" font-family="Inter" font-weight="600" fill="#1c2024" text-anchor="start"><text x="12" y="1110.82" xml:space="preserve">Name</text></g><g font-size="16" font-family="Inter" font-weight="600" fill="#1c2024" text-anchor="start"><text x="132" y="1110.82" xml:space="preserve">Notes</text></g><g font-size="16" font-family="Inter" font-weight="600" fill="#1c2024" text-anchor="end"><text x="508" y="1110.82" xml:space="preserve">Qty</text></g><g font-size="16" font-family="Inter" font-weight="400" fill="#1c2024" text-anchor="start"><text x="12" y="1150.82" xml:space="preserve">Alpha</text></g><g font-size="16" font-family="Inter" font-weight="400" fill="#1c2024" text-anchor="start"><text x="132" y="1150.82" xml:space="preserve">A short note</text></g><g font-size="16" font-family="Inter" font-weight="400" fill="#1c2024" text-anchor="end"><text x="508" y="1150.82" xml:space="preserve">1</text></g><g font-size="16" font-family="Inter" font-weight="400" fill="#1c2024" text-anchor="start"><text x="12" y="1198.82" xml:space="preserve">Beta</text></g><g font-size="16" font-family="Inter" font-weight="400" fill="#1c2024" text-anchor="start"><text x="132" y="1188.82" xml:space="preserve">A longer note that has to wrap onto a</text><text x="132" y="1208.82" xml:space="preserve">second line in this column</text></g><g font-size="16" font-family="Inter" font-weight="400" fill="#1c2024" text-anchor="end"><text x="508" y="1198.82" xml:space="preserve">22</text></g><g font-size="16" font-family="Inter" font-weight="400" fill="#1c2024" text-anchor="start"><text x="12" y="1246.82" xml:space="preserve">Gamma</text></g><g font-size="16" font-family="Inter" font-weight="400" fill="#1c2024" text-anchor="start"><text x="132" y="1246.82" xml:space="preserve">keyed cells</text></g><g font-size="16" font-family="Inter" font-weight="400" fill="#1c2024" text-anchor="end"><text x="508" y="1246.82" xml:space="preserve">333</text></g><g font-size="16" font-family="Inter" font-weight="400" fill="#1c2024" text-anchor="start"><text x="12" y="1286.82" xml:space="preserve">Delta</text></g><g font-size="16" font-family="Inter" font-weight="400" fill="#1c2024" text-anchor="end"><text x="508" y="1286.82" xml:space="preserve">4</text></g></g><g data-id="E-28"><rect x="1682" y="1172" width="200" height="60" rx="12" fill="#ffffff" stroke="#d9dce1" stroke-width="1" stroke-linecap="round" stroke-linejoin="round" filter="url(#synapse-elev-1)"/><g font-size="20" font-family="Inter" font-weight="600" fill="#1c2024" text-anchor="start"><text x="1698" y="1207.78" xml:space="preserve">Discovery</text></g></g><g data-id="E-29"><rect x="1902" y="1292" width="200" height="60" rx="12" fill="#ffffff" stroke="#d9dce1" stroke-width="1" stroke-linecap="round" stroke-linejoin="round" filter="url(#synapse-elev-1)"/><rect x="1908" y="1302" width="4" height="40" rx="2" fill="#1e66c9" stroke="none"/><g font-size="20" font-family="Inter" font-weight="600" fill="#1c2024" text-anchor="start"><text x="1918" y="1327.78" xml:space="preserve">Design</text></g></g><g data-id="E-30"><rect x="2122" y="1132" width="200" height="100" rx="12" fill="#ffffff" stroke="#d9dce1" stroke-width="1" stroke-linecap="round" stroke-linejoin="round" filter="url(#synapse-elev-1)"/><g font-size="20" font-family="Inter" font-weight="600" fill="#1c2024" text-anchor="start"><text x="2138" y="1167.78" xml:space="preserve">Build</text></g><g font-size="16" font-family="Inter" font-weight="400" fill="#5b616b" text-anchor="start"><text x="2138" y="1192.82" xml:space="preserve">Two sprints</text></g></g><g data-id="E-31"><rect x="2342" y="1292" width="200" height="60" rx="12" fill="#ffffff" stroke="#d9dce1" stroke-width="1" stroke-linecap="round" stroke-linejoin="round" filter="url(#synapse-elev-1)"/><rect x="2348" y="1302" width="4" height="40" rx="2" fill="#1d7a47" stroke="none"/><g font-size="20" font-family="Inter" font-weight="600" fill="#1c2024" text-anchor="start"><text x="2358" y="1327.78" xml:space="preserve">Launch</text></g></g><g data-id="E-33"><rect x="252" y="1473" width="280" height="100" rx="12" fill="#ffffff" stroke="#d9dce1" stroke-width="1" stroke-linecap="round" stroke-linejoin="round" filter="url(#synapse-elev-1)"/><g font-size="20" font-family="Inter" font-weight="600" fill="#1c2024" text-anchor="start"><text x="268" y="1508.78" xml:space="preserve">Platform</text></g><g font-size="16" font-family="Inter" font-weight="400" fill="#5b616b" text-anchor="start"><text x="268" y="1533.82" xml:space="preserve">The platform team owns these</text></g></g><g data-id="E-34"><rect x="32" y="1653" width="200" height="200" rx="4" fill="#fff0a0" stroke="none" filter="url(#synapse-elev-1)"/><g font-size="20" font-family="Inter" font-weight="500" fill="#4a3b05" text-anchor="middle"><text x="132" y="1760.28" xml:space="preserve">Idea</text></g></g><g data-id="E-35"><g transform="matrix(1.33 0 0 1.33 376 1723)"><path d="M21 5 C21 6.66 16.97 8 12 8 C7.03 8 3 6.66 3 5 C3 3.34 7.03 2 12 2 C16.97 2 21 3.34 21 5 Z" fill="none" stroke="#1c2024" stroke-width="2" stroke-linecap="round" stroke-linejoin="round"/><path d="M3 5 L3 19 L3.17 19.59 L3.69 20.15 L4.52 20.67 L5.64 21.12 L7 21.49 L8.56 21.77 L10.24 21.94 L12 22 L13.76 21.94 L15.44 21.77 L17 21.49 L18.36 21.12 L19.48 20.67 L20.31 20.15 L20.83 19.59 L21 19 L21 5" fill="none" stroke="#1c2024" stroke-width="2" stroke-linecap="round" stroke-linejoin="round"/><path d="M3 12 L3.17 12.59 L3.69 13.15 L4.52 13.67 L5.64 14.12 L7 14.49 L8.56 14.77 L10.24 14.94 L12 15 L13.76 14.94 L15.44 14.77 L17 14.49 L18.36 14.12 L19.48 13.67 L20.31 13.15 L20.83 12.59 L21 12" fill="none" stroke="#1c2024" stroke-width="2" stroke-linecap="round" stroke-linejoin="round"/></g><g font-size="12" font-family="Inter" font-weight="500" fill="#5b616b" text-anchor="middle"><text x="392" y="1772.87" xml:space="preserve">Storage</text></g></g><g data-id="E-36"><polygon points="652,1693 752,1753 652,1813 552,1753" fill="#ffffff" stroke="#80858f" stroke-width="2" stroke-linecap="round" stroke-linejoin="round"/><g font-size="20" font-family="Inter" font-weight="500" fill="#1c2024" text-anchor="middle"><text x="652" y="1747.78" xml:space="preserve">Is it</text><text x="652" y="1772.78" xml:space="preserve">ready?</text></g></g><g data-id="E-37"><ellipse cx="527" cy="1993" rx="80" ry="30" fill="#ffffff" stroke="#80858f" stroke-width="2" stroke-linecap="round" stroke-linejoin="round"/><g font-size="20" font-family="Inter" font-weight="500" fill="#1c2024" text-anchor="middle"><text x="527" y="2000.28" xml:space="preserve">Ellipse</text></g></g><g data-id="E-38"><rect x="687" y="1933" width="180" height="120" rx="4" fill="#fff0a0" stroke="#9e8000" stroke-width="2" stroke-linecap="round" stroke-linejoin="round"/><g font-size="20" font-family="Inter" font-weight="500" fill="#4a3b05" text-anchor="middle"><text x="777" y="2000.28" xml:space="preserve">A note</text></g></g><g data-id="E-39"><g><path d="M332.48 1575.65 Q266.49 1599.27 235 1661.89" fill="none" stroke="#6b7079" stroke-width="2" stroke-linecap="round" stroke-linejoin="round"/><polyline points="240.85,1647.37 235,1661.89 250.12,1657.86" fill="none" stroke="#6b7079" stroke-width="2" stroke-linecap="round" stroke-linejoin="round"/></g></g><g data-id="E-40"><g><path d="M392 1577 Q363.6 1648 392 1719" fill="none" stroke="#6b7079" stroke-width="2" stroke-linecap="round" stroke-linejoin="round"/><polyline points="385,1705 392,1719 399,1705" fill="none" stroke="#6b7079" stroke-width="2" stroke-linecap="round" stroke-linejoin="round"/></g></g><g data-id="E-41"><g><path d="M451.52 1575.65 Q502.27 1676.54 608.59 1714.6" fill="none" stroke="#6b7079" stroke-width="2" stroke-linecap="round" stroke-linejoin="round"/><polyline points="593.47,1710.57 608.59,1714.6 602.74,1700.08" fill="none" stroke="#6b7079" stroke-width="2" stroke-linecap="round" stroke-linejoin="round"/></g></g><g data-id="E-42"><g><path d="M626.34 1802.26 Q553.71 1864.7 544.18 1960.01" fill="none" stroke="#6b7079" stroke-width="2" stroke-linecap="round" stroke-linejoin="round"/><polyline points="544.44,1944.36 544.18,1960.01 556.86,1950.83" fill="none" stroke="#6b7079" stroke-width="2" stroke-linecap="round" stroke-linejoin="round"/></g></g><g data-id="E-43"><g><path d="M677.66 1802.26 Q685.34 1879.1 743.9 1929.45" fill="none" stroke="#6b7079" stroke-width="2" stroke-linecap="round" stroke-linejoin="round"/></g></g><g data-id="E-45"><rect x="1000" y="1571" width="200" height="100" rx="8" fill="#5b45c4" stroke="#5b45c4" stroke-width="2" stroke-linecap="round" stroke-linejoin="round"/><g font-size="28" font-family="Inter" font-weight="500" fill="#ffffff" text-anchor="middle"><text x="1100" y="1613.69" xml:space="preserve">Right-sided</text><text x="1100" y="1648.69" xml:space="preserve">map</text></g></g><g data-id="E-46"><rect x="1260" y="1522" width="120" height="60" rx="8" fill="#ffffff" stroke="#80858f" stroke-width="2" stroke-linecap="round" stroke-linejoin="round"/><g font-size="20" font-family="Inter" font-weight="500" fill="#1c2024" text-anchor="middle"><text x="1320" y="1559.28" xml:space="preserve">One</text></g></g><g data-id="E-47"><rect x="1440" y="1480" width="120" height="60" rx="8" fill="#ffffff" stroke="#80858f" stroke-width="2" stroke-linecap="round" stroke-linejoin="round"/><g font-size="20" font-family="Inter" font-weight="500" fill="#1c2024" text-anchor="middle"><text x="1500" y="1517.28" xml:space="preserve">a</text></g></g><g data-id="E-48"><rect x="1440" y="1564" width="120" height="60" rx="8" fill="#ffffff" stroke="#80858f" stroke-width="2" stroke-linecap="round" stroke-linejoin="round"/><g font-size="20" font-family="Inter" font-weight="500" fill="#1c2024" text-anchor="middle"><text x="1500" y="1601.28" xml:space="preserve">b</text></g></g><g data-id="E-49"><rect x="1260" y="1660" width="120" height="60" rx="8" fill="#ffffff" stroke="#80858f" stroke-width="2" stroke-linecap="round" stroke-linejoin="round"/><g font-size="20" font-family="Inter" font-weight="500" fill="#1c2024" text-anchor="middle"><text x="1320" y="1697.28" xml:space="preserve">Two</text></g></g><g data-id="E-50"><rect x="1440" y="1660" width="120" height="60" rx="8" fill="#ffffff" stroke="#80858f" stroke-width="2" stroke-linecap="round" stroke-linejoin="round"/><g font-size="20" font-family="Inter" font-weight="500" fill="#1c2024" text-anchor="middle"><text x="1500" y="1697.28" xml:space="preserve">c</text></g></g><g data-id="E-51"><rect x="1620" y="1660" width="120" height="60" rx="8" fill="#ffffff" stroke="#80858f" stroke-width="2" stroke-linecap="round" stroke-linejoin="round"/><g font-size="20" font-family="Inter" font-weight="500" fill="#1c2024" text-anchor="middle"><text x="1680" y="1697.28" xml:space="preserve">d</text></g></g><g data-id="E-52"><g><path d="M1204 1621 Q1230 1621 1230 1586.5 Q1230 1552 1256 1552" fill="none" stroke="#6b7079" stroke-width="2" stroke-linecap="round" stroke-linejoin="round"/></g></g><g data-id="E-53"><g><path d="M1384 1552 Q1410 1552 1410 1531 Q1410 1510 1436 1510" fill="none" stroke="#6b7079" stroke-width="2" stroke-linecap="round" stroke-linejoin="round"/></g></g><g data-id="E-54"><g><path d="M1384 1552 Q1410 1552 1410 1573 Q1410 1594 1436 1594" fill="none" stroke="#6b7079" stroke-width="2" stroke-linecap="round" stroke-linejoin="round"/></g></g><g data-id="E-55"><g><path d="M1204 1621 Q1230 1621 1230 1655.5 Q1230 1690 1256 1690" fill="none" stroke="#6b7079" stroke-width="2" stroke-linecap="round" stroke-linejoin="round"/></g></g><g data-id="E-56"><g><path d="M1384 1690 Q1410 1690 1436 1690" fill="none" stroke="#6b7079" stroke-width="2" stroke-linecap="round" stroke-linejoin="round"/></g></g><g data-id="E-57"><g><path d="M1564 1690 Q1590 1690 1616 1690" fill="none" stroke="#6b7079" stroke-width="2" stroke-linecap="round" stroke-linejoin="round"/></g></g><g data-id="E-58"><rect x="0" y="2181" width="696" height="557" rx="8" fill="#ffffff" stroke="#d9dce1" stroke-width="1" stroke-linecap="round" stroke-linejoin="round"/><g font-size="16" font-family="Inter" font-weight="600" fill="#1c2024" text-anchor="start"><text x="16" y="2206.82" xml:space="preserve">Sequence with a loop and notes</text></g><rect x="288" y="2397" width="280" height="116" rx="4" fill="none" stroke="#6b7079" stroke-width="1" stroke-linecap="round" stroke-linejoin="round"/><rect x="288" y="2397" width="117.6" height="20" rx="4" fill="#ffffff" stroke="#6b7079" stroke-width="1" stroke-linecap="round" stroke-linejoin="round"/><g font-size="12" font-family="Inter" font-weight="600" fill="#5b616b" text-anchor="start"><text x="296" y="2411.37" xml:space="preserve">loop · until acked</text></g><polyline points="188,2269 188,2721.5" fill="none" stroke="#6b7079" stroke-width="1.5" stroke-dasharray="6 4.5" stroke-linecap="round" stroke-linejoin="round"/><polyline points="348,2269 348,2721.5" fill="none" stroke="#6b7079" stroke-width="1.5" stroke-dasharray="6 4.5" stroke-linecap="round" stroke-linejoin="round"/><polyline points="508,2269 508,2721.5" fill="none" stroke="#6b7079" stroke-width="1.5" stroke-dasharray="6 4.5" stroke-linecap="round" stroke-linejoin="round"/><rect x="128" y="2221" width="120" height="48" rx="8" fill="#ffffff" stroke="#80858f" stroke-width="1.5" stroke-linecap="round" stroke-linejoin="round"/><g transform="matrix(0.83 0 0 0.83 151.2 2235)"><path d="M19 21 L19 19 L18.98 18.61 L18.92 18.22 L18.83 17.84 L18.7 17.47 L18.53 17.11 L18.33 16.78 L18.09 16.46 L17.83 16.17 L17.54 15.91 L17.22 15.67 L16.89 15.47 L16.53 15.3 L16.16 15.17 L15.78 15.08 L15.39 15.02 L15 15 L9 15 L8.61 15.02 L8.22 15.08 L7.84 15.17 L7.47 15.3 L7.11 15.47 L6.78 15.67 L6.46 15.91 L6.17 16.17 L5.91 16.46 L5.67 16.78 L5.47 17.11 L5.3 17.47 L5.17 17.84 L5.08 18.22 L5.02 18.61 L5 19 L5 21" fill="none" stroke="#1c2024" stroke-width="2" stroke-linecap="round" stroke-linejoin="round"/><path d="M16 7 C16 9.21 14.21 11 12 11 C9.79 11 8 9.21 8 7 C8 4.79 9.79 3 12 3 C14.21 3 16 4.79 16 7 Z" fill="none" stroke="#1c2024" stroke-width="2" stroke-linecap="round" stroke-linejoin="round"/></g><g font-size="16" font-family="Inter" font-weight="500" fill="#1c2024" text-anchor="middle"><text x="202" y="2250.82" xml:space="preserve">Client</text></g><rect x="288" y="2221" width="120" height="48" rx="8" fill="#e8f2fe" stroke="#3f84d8" stroke-width="1.5" stroke-linecap="round" stroke-linejoin="round"/><g font-size="16" font-family="Inter" font-weight="500" fill="#0b3a6e" text-anchor="middle"><text x="348" y="2250.82" xml:space="preserve">Server</text></g><rect x="448" y="2221" width="120" height="48" rx="8" fill="#ffffff" stroke="#80858f" stroke-width="1.5" stroke-linecap="round" stroke-linejoin="round"/><g font-size="16" font-family="Inter" font-weight="500" fill="#1c2024" text-anchor="middle"><text x="508" y="2250.82" xml:space="preserve">Queue</text></g><g><path d="M188 2321 L348 2321" fill="none" stroke="#1c2024" stroke-width="1.5" stroke-linecap="round" stroke-linejoin="round"/><polygon points="335,2327.5 348,2321 335,2314.5" fill="#1c2024" stroke="none"/></g><g font-size="16" font-family="Inter" font-weight="500" fill="#5b616b" text-anchor="middle"><text x="268" y="2308.82" xml:space="preserve">request</text></g><g><path d="M348 2365 L388 2365 L388 2385 L348 2385" fill="none" stroke="#1c2024" stroke-width="1.5" stroke-linecap="round" stroke-linejoin="round"/><polygon points="361,2378.5 348,2385 361,2391.5" fill="#1c2024" stroke="none"/></g><g font-size="16" font-family="Inter" font-weight="500" fill="#5b616b" text-anchor="start"><text x="396" y="2352.82" xml:space="preserve">validate</text></g><g><path d="M348 2449 L508 2449" fill="none" stroke="#1c2024" stroke-width="1.5" stroke-linecap="round" stroke-linejoin="round"/><polygon points="495,2455.5 508,2449 495,2442.5" fill="#1c2024" stroke="none"/></g><g font-size="16" font-family="Inter" font-weight="500" fill="#5b616b" text-anchor="middle"><text x="428" y="2436.82" xml:space="preserve">enqueue job</text></g><g><path d="M508 2493 L348 2493" fill="none" stroke="#1c2024" stroke-width="1.5" stroke-dasharray="6 4.5" stroke-linecap="round" stroke-linejoin="round"/><polyline points="361,2486.5 348,2493 361,2499.5" fill="none" stroke="#1c2024" stroke-width="1.5" stroke-linecap="round" stroke-linejoin="round"/></g><g font-size="16" font-family="Inter" font-weight="500" fill="#5b616b" text-anchor="middle"><text x="428" y="2480.82" xml:space="preserve">ack</text></g><g><path d="M348 2545 L188 2545" fill="none" stroke="#1c2024" stroke-width="1.5" stroke-dasharray="6 4.5" stroke-linecap="round" stroke-linejoin="round"/><polyline points="201,2538.5 188,2545 201,2551.5" fill="none" stroke="#1c2024" stroke-width="1.5" stroke-linecap="round" stroke-linejoin="round"/></g><g font-size="16" font-family="Inter" font-weight="500" fill="#5b616b" text-anchor="middle"><text x="268" y="2532.82" xml:space="preserve">202 accepted</text></g><rect x="16" y="2561" width="160" height="33.5" rx="4" fill="#fff0a0" stroke="none"/><g font-size="14" font-family="Inter" font-weight="400" fill="#4a3b05" text-anchor="middle"><text x="96" y="2582.84" xml:space="preserve">retries twice</text></g><rect x="520" y="2606.5" width="160" height="33.5" rx="4" fill="#fff0a0" stroke="none"/><g font-size="14" font-family="Inter" font-weight="400" fill="#4a3b05" text-anchor="middle"><text x="600" y="2628.34" xml:space="preserve">FIFO</text></g><rect x="268" y="2652" width="320" height="33.5" rx="4" fill="#fff0a0" stroke="none"/><g font-size="14" font-family="Inter" font-weight="400" fill="#4a3b05" text-anchor="middle"><text x="428" y="2673.84" xml:space="preserve">inside the VPC</text></g></g></g><g data-layer="labels"><g data-id="E-42"><rect x="563.24" y="1869.14" width="44.04" height="24" rx="6" fill="#ffffff" stroke="#e3e5e9" stroke-width="1" stroke-linecap="round" stroke-linejoin="round"/><g font-size="16" font-family="Inter" font-weight="500" fill="#5b616b" text-anchor="middle"><text x="585.26" y="1886.96" xml:space="preserve">yes</text></g></g></g><g data-layer="overlays"></g></svg>
