<svg xmlns="http://www.w3.org/2000/svg" width="1024" height="473" viewBox="-40 -40 2080 960"><defs><filter id="synapse-elev-1" x="-50%" y="-50%" width="200%" height="200%" color-interpolation-filters="sRGB"><feGaussianBlur in="SourceAlpha" stdDeviation="1" result="b0"/><feOffset in="b0" dx="0" dy="1" result="o0"/><feFlood flood-color="#101828" flood-opacity="0.06" result="f0"/><feComposite in="f0" in2="o0" operator="in" result="s0"/><feGaussianBlur in="SourceAlpha" stdDeviation="1.5" result="b1"/><feOffset in="b1" dx="0" dy="1" result="o1"/><feFlood flood-color="#101828" flood-opacity="0.1" result="f1"/><feComposite in="f1" in2="o1" operator="in" result="s1"/><feMerge><feMergeNode in="s0"/><feMergeNode in="s1"/><feMergeNode in="SourceGraphic"/></feMerge></filter></defs><rect x="-40" y="-40" width="2080" height="960" fill="#f7f8fa"/><g data-layer="zones"></g><g data-layer="marks"><g data-id="E-1"><rect x="0" y="0" width="640" height="420" rx="8" fill="#ffffff" stroke="#d9dce1" stroke-width="1" stroke-linecap="round" stroke-linejoin="round" filter="url(#synapse-elev-1)"/><g font-size="16" font-family="Inter" font-weight="600" fill="#1c2024" text-anchor="start"><text x="12" y="25.82" xml:space="preserve">Prod topology</text></g><g data-slot="scene3d"><g><polyline points="261.8,86.11 60.36,202.42" fill="none" stroke="#e3e5e9" stroke-width="2.03" stroke-linecap="round" stroke-linejoin="round"/><polyline points="277.47,95.16 76.03,211.46" fill="none" stroke="#e3e5e9" stroke-width="2.03" stroke-linecap="round" stroke-linejoin="round"/><polyline points="322.24,121.01 120.79,237.31" fill="none" stroke="#e3e5e9" stroke-width="2.03" stroke-linecap="round" stroke-linejoin="round"/><polyline points="367,146.85 165.56,263.15" fill="none" stroke="#e3e5e9" stroke-width="2.03" stroke-linecap="round" stroke-linejoin="round"/><polyline points="411.77,172.7 210.32,289" fill="none" stroke="#e3e5e9" stroke-width="2.03" stroke-linecap="round" stroke-linejoin="round"/><polyline points="456.54,198.54 255.09,314.85" fill="none" stroke="#e3e5e9" stroke-width="2.03" stroke-linecap="round" stroke-linejoin="round"/><polyline points="501.3,224.39 299.86,340.69" fill="none" stroke="#e3e5e9" stroke-width="2.03" stroke-linecap="round" stroke-linejoin="round"/><polyline points="546.07,250.23 344.62,366.54" fill="none" stroke="#e3e5e9" stroke-width="2.03" stroke-linecap="round" stroke-linejoin="round"/><polyline points="579.64,269.62 378.2,385.92" fill="none" stroke="#e3e5e9" stroke-width="2.03" stroke-linecap="round" stroke-linejoin="round"/><polyline points="261.8,86.11 579.64,269.62" fill="none" stroke="#e3e5e9" stroke-width="2.03" stroke-linecap="round" stroke-linejoin="round"/><polyline points="255.09,89.99 572.93,273.49" fill="none" stroke="#e3e5e9" stroke-width="2.03" stroke-linecap="round" stroke-linejoin="round"/><polyline points="210.32,115.84 528.16,299.34" fill="none" stroke="#e3e5e9" stroke-width="2.03" stroke-linecap="round" stroke-linejoin="round"/><polyline points="165.56,141.68 483.4,325.18" fill="none" stroke="#e3e5e9" stroke-width="2.03" stroke-linecap="round" stroke-linejoin="round"/><polyline points="120.79,167.53 438.63,351.03" fill="none" stroke="#e3e5e9" stroke-width="2.03" stroke-linecap="round" stroke-linejoin="round"/><polyline points="76.03,193.37 393.86,376.87" fill="none" stroke="#e3e5e9" stroke-width="2.03" stroke-linecap="round" stroke-linejoin="round"/><polyline points="60.36,202.42 378.2,385.92" fill="none" stroke="#e3e5e9" stroke-width="2.03" stroke-linecap="round" stroke-linejoin="round"/><polygon points="60.36,201.38 378.2,384.89 579.64,268.58 261.8,85.08" fill="#93959a" stroke="#292c32" stroke-width="2.03" stroke-linecap="round" stroke-linejoin="round"/><polygon points="60.36,202.42 378.2,385.92 378.2,384.89 60.36,201.38" fill="#797a7e" stroke="#292c32" stroke-width="2.03" stroke-linecap="round" stroke-linejoin="round"/><polygon points="579.64,269.62 579.64,268.58 378.2,384.89 378.2,385.92" fill="#646569" stroke="#292c32" stroke-width="2.03" stroke-linecap="round" stroke-linejoin="round"/><polygon points="127.51,180.71 181.23,211.72 234.94,180.71 181.23,149.69" fill="#83abe1" stroke="#15478d" stroke-width="2.03" stroke-linecap="round" stroke-linejoin="round"/><polygon points="234.94,201.38 234.94,180.71 181.23,211.72 181.23,232.4" fill="#597499" stroke="#15478d" stroke-width="2.03" stroke-linecap="round" stroke-linejoin="round"/><polygon points="127.51,201.38 181.23,232.4 181.23,211.72 127.51,180.71" fill="#6b8cb8" stroke="#15478d" stroke-width="2.03" stroke-linecap="round" stroke-linejoin="round"/><path d="M 368.92 229.81 C 368.92 239.91 383.1 248.09 400.58 248.09 C 418.06 248.09 432.23 239.91 432.23 229.81 L 432.23 167.78 C 432.23 157.69 418.06 149.51 400.58 149.51 C 383.1 149.51 368.92 157.69 368.92 167.78 Z" fill="#6b957e" stroke="#145532" stroke-width="2.03" stroke-linecap="round" stroke-linejoin="round"/><path d="M 422.96 180.71 C 410.6 187.84 390.56 187.84 378.2 180.71 C 365.83 173.57 365.83 162 378.2 154.86 C 390.56 147.72 410.6 147.72 422.96 154.86 C 435.32 162 435.32 173.57 422.96 180.71 Z" fill="#83b69a" stroke="#145532" stroke-width="2.03" stroke-linecap="round" stroke-linejoin="round"/><polygon points="275.23,234.98 275.23,172.95 239.42,193.63 239.42,255.66" fill="#706898" stroke="#403089" stroke-width="2.03" stroke-linecap="round" stroke-linejoin="round"/><polygon points="203.61,234.98 239.42,255.66 239.42,193.63 203.61,172.95" fill="#877db7" stroke="#403089" stroke-width="2.03" stroke-linecap="round" stroke-linejoin="round"/><polygon points="203.61,172.95 239.42,193.63 275.23,172.95 239.42,152.28" fill="#a599df" stroke="#403089" stroke-width="2.03" stroke-linecap="round" stroke-linejoin="round"/><polygon points="324.48,263.41 324.48,201.38 288.66,222.06 288.66,284.09" fill="#706898" stroke="#403089" stroke-width="2.03" stroke-linecap="round" stroke-linejoin="round"/><polygon points="252.85,263.41 288.66,284.09 288.66,222.06 252.85,201.38" fill="#877db7" stroke="#403089" stroke-width="2.03" stroke-linecap="round" stroke-linejoin="round"/><polygon points="252.85,201.38 288.66,222.06 324.48,201.38 288.66,180.71" fill="#a599df" stroke="#403089" stroke-width="2.03" stroke-linecap="round" stroke-linejoin="round"/><path d="M 286.2 153.57 C 286.2 165.81 276.28 175.73 264.04 175.73 C 251.81 175.73 241.88 165.81 241.88 153.57 C 241.88 141.33 251.81 131.41 264.04 131.41 C 276.28 131.41 286.2 141.33 286.2 153.57 Z" fill="#b18363" stroke="#813908" stroke-width="2.03" stroke-linecap="round" stroke-linejoin="round"/><path d="M 340.21 315.1 C 340.21 327.22 357.22 337.03 378.2 337.03 C 399.17 337.03 416.18 327.22 416.18 315.1 L 416.18 242.74 C 416.18 230.62 399.17 220.81 378.2 220.81 C 357.22 220.81 340.21 230.62 340.21 242.74 Z" fill="#6b957e" stroke="#145532" stroke-width="2.03" stroke-linecap="round" stroke-linejoin="round"/><path d="M 405.06 258.24 C 390.22 266.81 366.17 266.81 351.34 258.24 C 336.5 249.68 336.5 235.79 351.34 227.23 C 366.17 218.66 390.22 218.66 405.06 227.23 C 419.89 235.79 419.89 249.68 405.06 258.24 Z" fill="#83b69a" stroke="#145532" stroke-width="2.03" stroke-linecap="round" stroke-linejoin="round"/><g><path d="M 208.09 199.85 L 214.8 202.05" fill="none" stroke="#6b7079" stroke-width="3.05" stroke-linecap="round" stroke-linejoin="round"/><polygon points="221.52,204.25 213.98,204.57 215.62,199.53" fill="#6b7079" stroke="none"/></g><g><path d="M 306.57 240.81 L 344.27 260.87" fill="none" stroke="#6b7079" stroke-width="3.05" stroke-linecap="round" stroke-linejoin="round"/><polygon points="351.34,264.63 342.86,263.52 345.68,258.22" fill="#6b7079" stroke="none"/></g><g><path d="M 264.04 187.17 L 264.04 179.41" fill="none" stroke="#cc6a1e" stroke-width="3.05" stroke-linecap="round" stroke-linejoin="round"/><polygon points="264.04,171.66 266.95,179.41 261.13,179.41" fill="#cc6a1e" stroke="none"/></g><g><path d="M 385.26 253.62 L 392.54 227.59" fill="none" stroke="#6b7079" stroke-width="3.05" stroke-linecap="round" stroke-linejoin="round"/><polygon points="394.69,219.88 395.42,228.4 389.65,226.78" fill="#6b7079" stroke="none"/></g></g><rect x="135.32" y="130.69" width="91.81" height="15" rx="4" fill="#ffffff" stroke="none" opacity="0.85"/><g font-size="12" font-family="Inter" font-weight="500" fill="#1c2024" text-anchor="middle"><text x="181.23" y="142.56" xml:space="preserve">Load balancer</text></g><rect x="235.52" y="288.09" width="57.04" height="15" rx="4" fill="#ffffff" stroke="none" opacity="0.85"/><g font-size="12" font-family="Inter" font-weight="500" fill="#1c2024" text-anchor="middle"><text x="264.04" y="299.95" xml:space="preserve">API pool</text></g><rect x="347.89" y="350.12" width="60.61" height="15" rx="4" fill="#ffffff" stroke="none" opacity="0.85"/><g font-size="12" font-family="Inter" font-weight="500" fill="#1c2024" text-anchor="middle"><text x="378.2" y="361.98" xml:space="preserve">Postgres</text></g><polyline points="264.04,117.39 264.04,81.39" fill="none" stroke="#5b616b" stroke-width="2.03" stroke-linecap="round" stroke-linejoin="round"/><rect x="243.7" y="66.39" width="40.68" height="15" rx="4" fill="#ffffff" stroke="none" opacity="0.85"/><g font-size="12" font-family="Inter" font-weight="500" fill="#1c2024" text-anchor="middle"><text x="264.04" y="78.25" xml:space="preserve">Redis</text></g><rect x="374.93" y="122.94" width="51.29" height="15" rx="4" fill="#ffffff" stroke="none" opacity="0.85"/><g font-size="12" font-family="Inter" font-weight="500" fill="#1c2024" text-anchor="middle"><text x="400.58" y="134.8" xml:space="preserve">Replica</text></g><rect x="312.72" y="241.22" width="32.47" height="15" rx="4" fill="#ffffff" stroke="none" opacity="0.85"/><g font-size="12" font-family="Inter" font-weight="500" fill="#1c2024" text-anchor="middle"><text x="328.95" y="253.08" xml:space="preserve">SQL</text></g></g></g><g data-id="E-2"><rect x="680" y="0" width="640" height="420" rx="8" fill="#ffffff" stroke="#d9dce1" stroke-width="1" stroke-linecap="round" stroke-linejoin="round" filter="url(#synapse-elev-1)"/><g font-size="16" font-family="Inter" font-weight="600" fill="#1c2024" text-anchor="start"><text x="692" y="25.82" xml:space="preserve">Rack R12</text></g><g data-slot="scene3d"><g><polyline points="924.79,385.92 1075.21,385.92" fill="none" stroke="#e3e5e9" stroke-width="2.03" stroke-linecap="round" stroke-linejoin="round"/><polygon points="924.79,385.92 1075.21,385.92 1075.21,85.08 924.79,85.08" fill="#797a7e" stroke="#292c32" stroke-width="2.03" stroke-linecap="round" stroke-linejoin="round" opacity="0.35"/><polygon points="932.31,382.91 1067.69,382.91 1067.69,352.83 932.31,352.83" fill="#6b8cb8" stroke="#15478d" stroke-width="2.03" stroke-linecap="round" stroke-linejoin="round"/><polygon points="932.31,345.31 1067.69,345.31 1067.69,315.22 932.31,315.22" fill="#6b8cb8" stroke="#15478d" stroke-width="2.03" stroke-linecap="round" stroke-linejoin="round"/><polygon points="932.31,307.7 1067.69,307.7 1067.69,277.62 932.31,277.62" fill="#b18363" stroke="#813908" stroke-width="2.03" stroke-linecap="round" stroke-linejoin="round"/><polygon points="932.31,270.1 1067.69,270.1 1067.69,255.05 932.31,255.05" fill="#877db7" stroke="#403089" stroke-width="2.03" stroke-linecap="round" stroke-linejoin="round"/></g><rect x="985.62" y="66.08" width="28.75" height="15" rx="4" fill="#ffffff" stroke="none" opacity="0.85"/><g font-size="12" font-family="Inter" font-weight="500" fill="#1c2024" text-anchor="middle"><text x="1000" y="77.95" xml:space="preserve">R12</text></g><rect x="979.21" y="386.91" width="41.58" height="15" rx="4" fill="#ffffff" stroke="none" opacity="0.85"/><g font-size="12" font-family="Inter" font-weight="500" fill="#1c2024" text-anchor="middle"><text x="1000" y="398.78" xml:space="preserve">gpu-1</text></g><polyline points="1051.69,330.26 1083.69,330.26" fill="none" stroke="#5b616b" stroke-width="2.03" stroke-linecap="round" stroke-linejoin="round"/><rect x="1083.69" y="322.76" width="44.07" height="15" rx="4" fill="#ffffff" stroke="none" opacity="0.85"/><g font-size="12" font-family="Inter" font-weight="500" fill="#1c2024" text-anchor="middle"><text x="1105.72" y="334.63" xml:space="preserve">gpu-2</text></g><polyline points="1051.69,292.66 1083.69,292.66" fill="none" stroke="#5b616b" stroke-width="2.03" stroke-linecap="round" stroke-linejoin="round"/><rect x="1083.69" y="285.16" width="113.51" height="15" rx="4" fill="#ffffff" stroke="none" opacity="0.85"/><g font-size="12" font-family="Inter" font-weight="500" fill="#1c2024" text-anchor="middle"><text x="1140.44" y="297.02" xml:space="preserve">gpu-3 (degraded)</text></g><rect x="963.18" y="236.05" width="73.63" height="15" rx="4" fill="#ffffff" stroke="none" opacity="0.85"/><g font-size="12" font-family="Inter" font-weight="500" fill="#1c2024" text-anchor="middle"><text x="1000" y="247.92" xml:space="preserve">ToR switch</text></g></g></g><g data-id="E-3"><rect x="680" y="460" width="640" height="420" rx="8" fill="#ffffff" stroke="#d9dce1" stroke-width="1" stroke-linecap="round" stroke-linejoin="round" filter="url(#synapse-elev-1)"/><g font-size="16" font-family="Inter" font-weight="600" fill="#1c2024" text-anchor="start"><text x="692" y="485.82" xml:space="preserve">Arm v3 on bench</text></g><g data-slot="scene3d"><g><polyline points="953.08,683.37 859.23,737.55" fill="none" stroke="#e3e5e9" stroke-width="2.03" stroke-linecap="round" stroke-linejoin="round"/><polyline points="971.85,694.21 878,748.39" fill="none" stroke="#e3e5e9" stroke-width="2.03" stroke-linecap="round" stroke-linejoin="round"/><polyline points="990.62,705.04 896.77,759.23" fill="none" stroke="#e3e5e9" stroke-width="2.03" stroke-linecap="round" stroke-linejoin="round"/><polyline points="1009.38,715.88 915.54,770.06" fill="none" stroke="#e3e5e9" stroke-width="2.03" stroke-linecap="round" stroke-linejoin="round"/><polyline points="1028.15,726.72 934.31,780.9" fill="none" stroke="#e3e5e9" stroke-width="2.03" stroke-linecap="round" stroke-linejoin="round"/><polyline points="1046.92,737.55 953.08,791.74" fill="none" stroke="#e3e5e9" stroke-width="2.03" stroke-linecap="round" stroke-linejoin="round"/><polyline points="1065.69,748.39 971.85,802.57" fill="none" stroke="#e3e5e9" stroke-width="2.03" stroke-linecap="round" stroke-linejoin="round"/><polyline points="1084.46,759.23 990.62,813.41" fill="none" stroke="#e3e5e9" stroke-width="2.03" stroke-linecap="round" stroke-linejoin="round"/><polyline points="1103.23,770.06 1009.38,824.25" fill="none" stroke="#e3e5e9" stroke-width="2.03" stroke-linecap="round" stroke-linejoin="round"/><polyline points="1122,780.9 1028.15,835.08" fill="none" stroke="#e3e5e9" stroke-width="2.03" stroke-linecap="round" stroke-linejoin="round"/><polyline points="1140.77,791.74 1046.92,845.92" fill="none" stroke="#e3e5e9" stroke-width="2.03" stroke-linecap="round" stroke-linejoin="round"/><polyline points="953.08,683.37 1140.77,791.74" fill="none" stroke="#e3e5e9" stroke-width="2.03" stroke-linecap="round" stroke-linejoin="round"/><polyline points="943.69,688.79 1131.39,797.15" fill="none" stroke="#e3e5e9" stroke-width="2.03" stroke-linecap="round" stroke-linejoin="round"/><polyline points="924.92,699.62 1112.62,807.99" fill="none" stroke="#e3e5e9" stroke-width="2.03" stroke-linecap="round" stroke-linejoin="round"/><polyline points="906.15,710.46 1093.85,818.83" fill="none" stroke="#e3e5e9" stroke-width="2.03" stroke-linecap="round" stroke-linejoin="round"/><polyline points="887.38,721.3 1075.08,829.66" fill="none" stroke="#e3e5e9" stroke-width="2.03" stroke-linecap="round" stroke-linejoin="round"/><polyline points="868.61,732.13 1056.31,840.5" fill="none" stroke="#e3e5e9" stroke-width="2.03" stroke-linecap="round" stroke-linejoin="round"/><polyline points="859.23,737.55 1046.92,845.92" fill="none" stroke="#e3e5e9" stroke-width="2.03" stroke-linecap="round" stroke-linejoin="round"/><polygon points="859.23,640.02 1046.92,748.39 1140.77,694.21 953.08,585.84" fill="#93959a" stroke="#292c32" stroke-width="2.03" stroke-linecap="round" stroke-linejoin="round"/><polygon points="859.23,737.55 1046.92,845.92 1046.92,748.39 859.23,640.02" fill="#797a7e" stroke="#292c32" stroke-width="2.03" stroke-linecap="round" stroke-linejoin="round"/><polygon points="1140.77,791.74 1140.77,694.21 1046.92,748.39 1046.92,845.92" fill="#646569" stroke="#292c32" stroke-width="2.03" stroke-linecap="round" stroke-linejoin="round"/><polygon points="967.15,664.4 1004.69,686.08 1004.69,599.38 967.15,577.71" fill="#797a7e" stroke="#292c32" stroke-width="2.03" stroke-dasharray="4 3" stroke-linecap="round" stroke-linejoin="round"/><polygon points="1032.85,669.82 1032.85,583.13 1004.69,599.38 1004.69,686.08" fill="#646569" stroke="#292c32" stroke-width="2.03" stroke-dasharray="4 3" stroke-linecap="round" stroke-linejoin="round"/><polygon points="967.15,577.71 1004.69,599.38 1032.85,583.13 995.31,561.45" fill="#93959a" stroke="#292c32" stroke-width="2.03" stroke-dasharray="4 3" stroke-linecap="round" stroke-linejoin="round"/><g font-size="10.62" font-family="Inter" font-weight="500" fill="#1c2024" text-anchor="middle"><text x="1000" y="569.11" xml:space="preserve">payload 1.2 kg</text></g></g><rect x="974.67" y="690.08" width="50.67" height="15" rx="4" fill="#ffffff" stroke="none" opacity="0.85"/><g font-size="12" font-family="Inter" font-weight="500" fill="#1c2024" text-anchor="middle"><text x="1000" y="701.94" xml:space="preserve">Arm v3</text></g></g></g><g data-id="E-4"><rect x="1360" y="460" width="640" height="420" rx="8" fill="#ffffff" stroke="#d9dce1" stroke-width="1" stroke-linecap="round" stroke-linejoin="round" filter="url(#synapse-elev-1)"/><g font-size="16" font-family="Inter" font-weight="600" fill="#1c2024" text-anchor="start"><text x="1372" y="485.82" xml:space="preserve">Event bus</text></g><g data-slot="scene3d"><g><polyline points="1677.99,545.08 1420.89,693.51" fill="none" stroke="#e3e5e9" stroke-width="2.03" stroke-linecap="round" stroke-linejoin="round"/><polyline points="1699.43,557.46 1442.33,705.9" fill="none" stroke="#e3e5e9" stroke-width="2.03" stroke-linecap="round" stroke-linejoin="round"/><polyline points="1727.93,573.91 1470.83,722.35" fill="none" stroke="#e3e5e9" stroke-width="2.03" stroke-linecap="round" stroke-linejoin="round"/><polyline points="1756.42,590.37 1499.32,738.8" fill="none" stroke="#e3e5e9" stroke-width="2.03" stroke-linecap="round" stroke-linejoin="round"/><polyline points="1784.92,606.82 1527.82,755.25" fill="none" stroke="#e3e5e9" stroke-width="2.03" stroke-linecap="round" stroke-linejoin="round"/><polyline points="1813.41,623.27 1556.32,771.7" fill="none" stroke="#e3e5e9" stroke-width="2.03" stroke-linecap="round" stroke-linejoin="round"/><polyline points="1841.91,639.72 1584.81,788.15" fill="none" stroke="#e3e5e9" stroke-width="2.03" stroke-linecap="round" stroke-linejoin="round"/><polyline points="1870.4,656.17 1613.31,804.61" fill="none" stroke="#e3e5e9" stroke-width="2.03" stroke-linecap="round" stroke-linejoin="round"/><polyline points="1898.9,672.62 1641.8,821.06" fill="none" stroke="#e3e5e9" stroke-width="2.03" stroke-linecap="round" stroke-linejoin="round"/><polyline points="1927.4,689.08 1670.3,837.51" fill="none" stroke="#e3e5e9" stroke-width="2.03" stroke-linecap="round" stroke-linejoin="round"/><polyline points="1941.96,697.49 1684.86,845.92" fill="none" stroke="#e3e5e9" stroke-width="2.03" stroke-linecap="round" stroke-linejoin="round"/><polyline points="1677.99,545.08 1941.96,697.49" fill="none" stroke="#e3e5e9" stroke-width="2.03" stroke-linecap="round" stroke-linejoin="round"/><polyline points="1663.42,553.49 1927.4,705.9" fill="none" stroke="#e3e5e9" stroke-width="2.03" stroke-linecap="round" stroke-linejoin="round"/><polyline points="1634.92,569.94 1898.9,722.35" fill="none" stroke="#e3e5e9" stroke-width="2.03" stroke-linecap="round" stroke-linejoin="round"/><polyline points="1606.43,586.39 1870.4,738.8" fill="none" stroke="#e3e5e9" stroke-width="2.03" stroke-linecap="round" stroke-linejoin="round"/><polyline points="1577.93,602.85 1841.91,755.25" fill="none" stroke="#e3e5e9" stroke-width="2.03" stroke-linecap="round" stroke-linejoin="round"/><polyline points="1549.44,619.3 1813.41,771.7" fill="none" stroke="#e3e5e9" stroke-width="2.03" stroke-linecap="round" stroke-linejoin="round"/><polyline points="1520.94,635.75 1784.92,788.15" fill="none" stroke="#e3e5e9" stroke-width="2.03" stroke-linecap="round" stroke-linejoin="round"/><polyline points="1492.45,652.2 1756.42,804.61" fill="none" stroke="#e3e5e9" stroke-width="2.03" stroke-linecap="round" stroke-linejoin="round"/><polyline points="1463.95,668.65 1727.93,821.06" fill="none" stroke="#e3e5e9" stroke-width="2.03" stroke-linecap="round" stroke-linejoin="round"/><polyline points="1435.45,685.1 1699.43,837.51" fill="none" stroke="#e3e5e9" stroke-width="2.03" stroke-linecap="round" stroke-linejoin="round"/><polyline points="1420.89,693.51 1684.86,845.92" fill="none" stroke="#e3e5e9" stroke-width="2.03" stroke-linecap="round" stroke-linejoin="round"/><path d="M 1595.77 625.06 L 1569.38 584.75 L 1543 625.06 C 1538.56 631.83 1542.41 639.49 1552.45 643.84 C 1562.48 648.19 1576.29 648.19 1586.32 643.84 C 1596.36 639.49 1600.21 631.83 1595.77 625.06 Z" fill="#b77174" stroke="#891d22" stroke-width="2.03" stroke-linecap="round" stroke-linejoin="round"/><polygon points="1762.12,593.65 1796.32,613.4 1830.51,593.65 1796.32,573.91" fill="#83abe1" stroke="#15478d" stroke-width="2.03" stroke-linecap="round" stroke-linejoin="round"/><polygon points="1830.51,633.14 1830.51,593.65 1796.32,613.4 1796.32,652.88" fill="#597499" stroke="#15478d" stroke-width="2.03" stroke-linecap="round" stroke-linejoin="round"/><polygon points="1762.12,633.14 1796.32,652.88 1796.32,613.4 1762.12,593.65" fill="#6b8cb8" stroke="#15478d" stroke-width="2.03" stroke-linecap="round" stroke-linejoin="round"/><path d="M 1620.39 697.49 C 1620.39 718.05 1649.25 734.71 1684.86 734.71 C 1720.47 734.71 1749.34 718.05 1749.34 697.49 L 1749.34 677.74 C 1749.34 657.18 1720.47 640.52 1684.86 640.52 C 1649.25 640.52 1620.39 657.18 1620.39 677.74 Z" fill="#877db7" stroke="#403089" stroke-width="2.03" stroke-linecap="round" stroke-linejoin="round"/><path d="M 1730.46 704.07 C 1705.28 718.6 1664.45 718.6 1639.27 704.07 C 1614.09 689.53 1614.09 665.96 1639.27 651.42 C 1664.45 636.88 1705.28 636.88 1730.46 651.42 C 1755.64 665.96 1755.64 689.53 1730.46 704.07 Z" fill="#a599df" stroke="#403089" stroke-width="2.03" stroke-linecap="round" stroke-linejoin="round"/><polygon points="1762.12,722.35 1796.32,742.09 1830.51,722.35 1796.32,702.6" fill="#83abe1" stroke="#15478d" stroke-width="2.03" stroke-linecap="round" stroke-linejoin="round"/><polygon points="1830.51,761.83 1830.51,722.35 1796.32,742.09 1796.32,781.57" fill="#597499" stroke="#15478d" stroke-width="2.03" stroke-linecap="round" stroke-linejoin="round"/><polygon points="1762.12,761.83 1796.32,781.57 1796.32,742.09 1762.12,722.35" fill="#6b8cb8" stroke="#15478d" stroke-width="2.03" stroke-linecap="round" stroke-linejoin="round"/><polygon points="1539.22,722.35 1573.41,742.09 1607.61,722.35 1573.41,702.6" fill="#83abe1" stroke="#15478d" stroke-width="2.03" stroke-linecap="round" stroke-linejoin="round"/><polygon points="1539.22,761.83 1573.41,781.57 1573.41,742.09 1539.22,722.35" fill="#6b8cb8" stroke="#15478d" stroke-width="2.03" stroke-linecap="round" stroke-linejoin="round"/><polygon points="1607.61,761.83 1607.61,722.35 1573.41,742.09 1573.41,781.57" fill="#597499" stroke="#15478d" stroke-width="2.03" stroke-linecap="round" stroke-linejoin="round"/><g><path d="M 1779.22 624.78 L 1737.12 652.82" fill="none" stroke="#6b7079" stroke-width="3.05" stroke-linecap="round" stroke-linejoin="round"/><polygon points="1730.46,657.25 1735.45,650.32 1738.78,655.31" fill="#6b7079" stroke="none"/></g><g><path d="M 1779.22 733.73 L 1737.64 713.41" fill="none" stroke="#6b7079" stroke-width="3.05" stroke-linecap="round" stroke-linejoin="round"/><polygon points="1730.46,709.9 1738.96,710.71 1736.33,716.11" fill="#6b7079" stroke="none"/></g><g><path d="M 1590.51 733.73 L 1632.08 713.41" fill="none" stroke="#6b7079" stroke-width="3.05" stroke-linecap="round" stroke-linejoin="round"/><polygon points="1639.27,709.9 1633.4,716.11 1630.77,710.71" fill="#6b7079" stroke="none"/></g><g><path d="M 1589.33 621.57 L 1632.69 651.54" fill="none" stroke="#6b7079" stroke-width="3.05" stroke-linecap="round" stroke-linejoin="round"/><polygon points="1639.27,656.09 1630.98,654.01 1634.4,649.08" fill="#6b7079" stroke="none"/></g></g><rect x="1663.8" y="606.1" width="42.13" height="15" rx="4" fill="#ffffff" stroke="none" opacity="0.85"/><g font-size="12" font-family="Inter" font-weight="500" fill="#1c2024" text-anchor="middle"><text x="1684.86" y="617.96" xml:space="preserve">Kafka</text></g><rect x="1774.72" y="554.91" width="43.19" height="15" rx="4" fill="#ffffff" stroke="none" opacity="0.85"/><g font-size="12" font-family="Inter" font-weight="500" fill="#1c2024" text-anchor="middle"><text x="1796.32" y="566.78" xml:space="preserve">billing</text></g><rect x="1772.17" y="785.57" width="48.28" height="15" rx="4" fill="#ffffff" stroke="none" opacity="0.85"/><g font-size="12" font-family="Inter" font-weight="500" fill="#1c2024" text-anchor="middle"><text x="1796.32" y="797.44" xml:space="preserve">search</text></g><rect x="1553.67" y="683.6" width="39.49" height="15" rx="4" fill="#ffffff" stroke="none" opacity="0.85"/><g font-size="12" font-family="Inter" font-weight="500" fill="#1c2024" text-anchor="middle"><text x="1573.41" y="695.47" xml:space="preserve">email</text></g><rect x="1549.6" y="542.72" width="39.56" height="15" rx="4" fill="#ffffff" stroke="none" opacity="0.85"/><g font-size="12" font-family="Inter" font-weight="500" fill="#1c2024" text-anchor="middle"><text x="1569.38" y="554.58" xml:space="preserve">fraud</text></g><rect x="1593.78" y="627.33" width="41.04" height="15" rx="4" fill="#ffffff" stroke="none" opacity="0.85"/><g font-size="12" font-family="Inter" font-weight="500" fill="#1c2024" text-anchor="middle"><text x="1614.3" y="639.2" xml:space="preserve">alerts</text></g></g></g><g data-id="E-5"><rect x="0" y="460" width="640" height="420" rx="8" fill="#ffffff" stroke="#d9dce1" stroke-width="1" stroke-linecap="round" stroke-linejoin="round" filter="url(#synapse-elev-1)"/><g font-size="16" font-family="Inter" font-weight="600" fill="#1c2024" text-anchor="start"><text x="12" y="485.82" xml:space="preserve">Every primitive</text></g><g data-slot="scene3d"><g><polyline points="265.07,546.89 61.03,664.69" fill="none" stroke="#e3e5e9" stroke-width="2.03" stroke-linecap="round" stroke-linejoin="round"/><polyline points="295.58,564.51 91.55,682.31" fill="none" stroke="#e3e5e9" stroke-width="2.03" stroke-linecap="round" stroke-linejoin="round"/><polyline points="326.97,582.63 122.94,700.43" fill="none" stroke="#e3e5e9" stroke-width="2.03" stroke-linecap="round" stroke-linejoin="round"/><polyline points="358.36,600.76 154.33,718.55" fill="none" stroke="#e3e5e9" stroke-width="2.03" stroke-linecap="round" stroke-linejoin="round"/><polyline points="389.75,618.88 185.72,736.68" fill="none" stroke="#e3e5e9" stroke-width="2.03" stroke-linecap="round" stroke-linejoin="round"/><polyline points="421.14,637 217.11,754.8" fill="none" stroke="#e3e5e9" stroke-width="2.03" stroke-linecap="round" stroke-linejoin="round"/><polyline points="452.53,655.12 248.5,772.92" fill="none" stroke="#e3e5e9" stroke-width="2.03" stroke-linecap="round" stroke-linejoin="round"/><polyline points="483.92,673.25 279.89,791.05" fill="none" stroke="#e3e5e9" stroke-width="2.03" stroke-linecap="round" stroke-linejoin="round"/><polyline points="515.31,691.37 311.28,809.17" fill="none" stroke="#e3e5e9" stroke-width="2.03" stroke-linecap="round" stroke-linejoin="round"/><polyline points="546.7,709.49 342.67,827.29" fill="none" stroke="#e3e5e9" stroke-width="2.03" stroke-linecap="round" stroke-linejoin="round"/><polyline points="578.09,727.62 374.06,845.41" fill="none" stroke="#e3e5e9" stroke-width="2.03" stroke-linecap="round" stroke-linejoin="round"/><polyline points="578.97,728.12 374.93,845.92" fill="none" stroke="#e3e5e9" stroke-width="2.03" stroke-linecap="round" stroke-linejoin="round"/><polyline points="265.07,546.89 578.97,728.12" fill="none" stroke="#e3e5e9" stroke-width="2.03" stroke-linecap="round" stroke-linejoin="round"/><polyline points="253.85,553.37 567.75,734.6" fill="none" stroke="#e3e5e9" stroke-width="2.03" stroke-linecap="round" stroke-linejoin="round"/><polyline points="222.46,571.49 536.36,752.72" fill="none" stroke="#e3e5e9" stroke-width="2.03" stroke-linecap="round" stroke-linejoin="round"/><polyline points="191.07,589.62 504.97,770.84" fill="none" stroke="#e3e5e9" stroke-width="2.03" stroke-linecap="round" stroke-linejoin="round"/><polyline points="159.68,607.74 473.58,788.97" fill="none" stroke="#e3e5e9" stroke-width="2.03" stroke-linecap="round" stroke-linejoin="round"/><polyline points="128.29,625.86 442.19,807.09" fill="none" stroke="#e3e5e9" stroke-width="2.03" stroke-linecap="round" stroke-linejoin="round"/><polyline points="96.9,643.98 410.8,825.21" fill="none" stroke="#e3e5e9" stroke-width="2.03" stroke-linecap="round" stroke-linejoin="round"/><polyline points="65.51,662.11 379.41,843.34" fill="none" stroke="#e3e5e9" stroke-width="2.03" stroke-linecap="round" stroke-linejoin="round"/><polyline points="61.03,664.69 374.93,845.92" fill="none" stroke="#e3e5e9" stroke-width="2.03" stroke-linecap="round" stroke-linejoin="round"/><polygon points="61.03,662.88 374.93,844.11 578.97,726.31 265.07,545.08" fill="#93959a" stroke="#292c32" stroke-width="2.03" stroke-linecap="round" stroke-linejoin="round"/><polygon points="61.03,664.69 374.93,845.92 374.93,844.11 61.03,662.88" fill="#797a7e" stroke="#292c32" stroke-width="2.03" stroke-linecap="round" stroke-linejoin="round"/><polygon points="578.97,728.12 578.97,726.31 374.93,844.11 374.93,845.92" fill="#646569" stroke="#292c32" stroke-width="2.03" stroke-linecap="round" stroke-linejoin="round"/><polygon points="229.77,600.95 298.38,611.57 307.57,591.76 238.96,581.15" fill="#83abe1" stroke="#15478d" stroke-width="2.03" stroke-linecap="round" stroke-linejoin="round"/><polygon points="307.57,609.89 307.57,591.76 298.38,611.57 298.38,629.69" fill="#597499" stroke="#15478d" stroke-width="2.03" stroke-linecap="round" stroke-linejoin="round"/><polygon points="229.77,619.08 298.38,629.69 298.38,611.57 229.77,600.95" fill="#6b8cb8" stroke="#15478d" stroke-width="2.03" stroke-linecap="round" stroke-linejoin="round"/><path d="M 349.2 636.23 C 349.2 646.04 341.25 653.99 331.45 653.99 C 321.64 653.99 313.69 646.04 313.69 636.23 C 313.69 626.42 321.64 618.47 331.45 618.47 C 341.25 618.47 349.2 626.42 349.2 636.23 Z" fill="#b18363" stroke="#813908" stroke-width="2.03" stroke-linecap="round" stroke-linejoin="round"/><polygon points="169,648.46 181.56,655.71 194.12,648.46 181.56,641.21" fill="#a599df" stroke="#403089" stroke-width="2.03" stroke-linecap="round" stroke-linejoin="round"/><polygon points="169,662.96 181.56,670.21 181.56,655.71 169,648.46" fill="#877db7" stroke="#403089" stroke-width="2.03" stroke-linecap="round" stroke-linejoin="round"/><polygon points="194.12,662.96 194.12,648.46 181.56,655.71 181.56,670.21" fill="#706898" stroke="#403089" stroke-width="2.03" stroke-linecap="round" stroke-linejoin="round"/><polygon points="151.74,662.05 164.3,669.3 176.85,662.05 164.3,654.8" fill="#a599df" stroke="#403089" stroke-width="2.03" stroke-linecap="round" stroke-linejoin="round"/><polygon points="176.85,672.93 176.85,662.05 164.3,669.3 164.3,680.18" fill="#706898" stroke="#403089" stroke-width="2.03" stroke-linecap="round" stroke-linejoin="round"/><polygon points="151.74,672.93 164.3,680.18 164.3,669.3 151.74,662.05" fill="#877db7" stroke="#403089" stroke-width="2.03" stroke-linecap="round" stroke-linejoin="round"/><polygon points="186.27,672.93 198.82,680.18 198.82,658.43 186.27,651.18" fill="#877db7" stroke="#403089" stroke-width="2.03" stroke-linecap="round" stroke-linejoin="round"/><polygon points="211.38,672.93 211.38,651.18 198.82,658.43 198.82,680.18" fill="#706898" stroke="#403089" stroke-width="2.03" stroke-linecap="round" stroke-linejoin="round"/><polygon points="186.27,651.18 198.82,658.43 211.38,651.18 198.82,643.93" fill="#a599df" stroke="#403089" stroke-width="2.03" stroke-linecap="round" stroke-linejoin="round"/><polygon points="203.53,682.9 216.09,690.14 216.09,661.15 203.53,653.9" fill="#877db7" stroke="#403089" stroke-width="2.03" stroke-linecap="round" stroke-linejoin="round"/><polygon points="228.65,682.9 228.65,653.9 216.09,661.15 216.09,690.14" fill="#706898" stroke="#403089" stroke-width="2.03" stroke-linecap="round" stroke-linejoin="round"/><polygon points="203.53,653.9 216.09,661.15 228.65,653.9 216.09,646.65" fill="#a599df" stroke="#403089" stroke-width="2.03" stroke-linecap="round" stroke-linejoin="round"/><path d="M 372.03 686.97 C 372.03 694.05 381.97 699.79 394.23 699.79 C 406.49 699.79 416.42 694.05 416.42 686.97 L 416.42 643.48 C 416.42 636.4 406.49 630.66 394.23 630.66 C 381.97 630.66 372.03 636.4 372.03 643.48 Z" fill="#6b957e" stroke="#145532" stroke-width="2.03" stroke-linecap="round" stroke-linejoin="round"/><path d="M 409.92 652.54 C 401.26 657.54 387.2 657.54 378.53 652.54 C 369.86 647.53 369.86 639.42 378.53 634.42 C 387.2 629.41 401.26 629.41 409.92 634.42 C 418.59 639.42 418.59 647.53 409.92 652.54 Z" fill="#83b69a" stroke="#145532" stroke-width="2.03" stroke-linecap="round" stroke-linejoin="round"/><path d="M 303.65 719.02 C 303.65 723.93 299.68 727.9 294.77 727.9 C 289.87 727.9 285.89 723.93 285.89 719.02 C 285.89 714.12 289.87 710.14 294.77 710.14 C 299.68 710.14 303.65 714.12 303.65 719.02 Z" fill="#6b8cb8" stroke="#15478d" stroke-width="2.03" stroke-linecap="round" stroke-linejoin="round"/><path d="M 477.77 718.69 L 457.01 686.97 L 436.25 718.69 C 432.75 724.02 435.78 730.04 443.68 733.47 C 451.58 736.89 462.44 736.89 470.34 733.47 C 478.23 730.04 481.26 724.02 477.77 718.69 Z" fill="#b77174" stroke="#891d22" stroke-width="2.03" stroke-linecap="round" stroke-linejoin="round"/><path d="M 270.82 724.1 C 270.82 729.01 266.84 732.98 261.94 732.98 C 257.03 732.98 253.06 729.01 253.06 724.1 C 253.06 719.2 257.03 715.22 261.94 715.22 C 266.84 715.22 270.82 719.2 270.82 724.1 Z" fill="#6b8cb8" stroke="#15478d" stroke-width="2.03" stroke-linecap="round" stroke-linejoin="round"/><path d="M 294.85 737.98 C 294.85 742.88 290.87 746.86 285.97 746.86 C 281.07 746.86 277.09 742.88 277.09 737.98 C 277.09 733.07 281.07 729.1 285.97 729.1 C 290.87 729.1 294.85 733.07 294.85 737.98 Z" fill="#6b8cb8" stroke="#15478d" stroke-width="2.03" stroke-linecap="round" stroke-linejoin="round"/><polygon points="344,755.84 362.84,766.71 381.67,755.84 362.84,744.97" fill="#93959a" stroke="#292c32" stroke-width="2.03" stroke-dasharray="4 3" stroke-linecap="round" stroke-linejoin="round"/><polygon points="381.67,777.59 381.67,755.84 362.84,766.71 362.84,788.46" fill="#646569" stroke="#292c32" stroke-width="2.03" stroke-dasharray="4 3" stroke-linecap="round" stroke-linejoin="round"/><polygon points="344,777.59 362.84,788.46 362.84,766.71 344,755.84" fill="#797a7e" stroke="#292c32" stroke-width="2.03" stroke-dasharray="4 3" stroke-linecap="round" stroke-linejoin="round"/><g font-size="13.32" font-family="Inter" font-weight="500" fill="#1c2024" text-anchor="middle"><text x="362.84" y="748" xml:space="preserve">loading dock</text></g><g><path d="M 344 642.03 L 371.27 654.62" fill="none" stroke="#7d68d8" stroke-width="3.05" stroke-linecap="round" stroke-linejoin="round"/><polygon points="378.53,657.98 370.01,657.35 372.53,651.9" fill="#7d68d8" stroke="none"/></g></g><rect x="302.24" y="526.08" width="35.51" height="15" rx="4" fill="#ffffff" stroke="none" opacity="0.85"/><g font-size="12" font-family="Inter" font-weight="500" fill="#1c2024" text-anchor="middle"><text x="320" y="537.95" xml:space="preserve">floor</text></g><rect x="245.29" y="547.65" width="46.76" height="15" rx="4" fill="#ffffff" stroke="none" opacity="0.85"/><g font-size="12" font-family="Inter" font-weight="500" fill="#1c2024" text-anchor="middle"><text x="268.67" y="559.52" xml:space="preserve">turned</text></g><rect x="317" y="669.23" width="28.89" height="15" rx="4" fill="#ffffff" stroke="none" opacity="0.85"/><g font-size="12" font-family="Inter" font-weight="500" fill="#1c2024" text-anchor="middle"><text x="331.45" y="681.09" xml:space="preserve">ball</text></g><rect x="377.44" y="606.35" width="33.57" height="15" rx="4" fill="#ffffff" stroke="none" opacity="0.85"/><g font-size="12" font-family="Inter" font-weight="500" fill="#1c2024" text-anchor="middle"><text x="394.23" y="618.22" xml:space="preserve">tank</text></g><rect x="438.59" y="649.85" width="36.83" height="15" rx="4" fill="#ffffff" stroke="none" opacity="0.85"/><g font-size="12" font-family="Inter" font-weight="500" fill="#1c2024" text-anchor="middle"><text x="457.01" y="661.71" xml:space="preserve">peak</text></g><rect x="174.6" y="607.71" width="31.19" height="15" rx="4" fill="#ffffff" stroke="none" opacity="0.85"/><g font-size="12" font-family="Inter" font-weight="500" fill="#1c2024" text-anchor="middle"><text x="190.19" y="619.58" xml:space="preserve">grid</text></g><polyline points="181.56,641.21 181.56,605.21" fill="none" stroke="#5b616b" stroke-width="2.03" stroke-linecap="round" stroke-linejoin="round"/><rect x="171.17" y="590.21" width="20.79" height="15" rx="4" fill="#ffffff" stroke="none" opacity="0.85"/><g font-size="12" font-family="Inter" font-weight="500" fill="#1c2024" text-anchor="middle"><text x="181.56" y="602.08" xml:space="preserve">g1</text></g><rect x="187.19" y="624.93" width="23.27" height="15" rx="4" fill="#ffffff" stroke="none" opacity="0.85"/><g font-size="12" font-family="Inter" font-weight="500" fill="#1c2024" text-anchor="middle"><text x="198.82" y="636.8" xml:space="preserve">g2</text></g><rect x="204.39" y="694.14" width="23.41" height="15" rx="4" fill="#ffffff" stroke="none" opacity="0.85"/><g font-size="12" font-family="Inter" font-weight="500" fill="#1c2024" text-anchor="middle"><text x="216.09" y="706.01" xml:space="preserve">g3</text></g><rect x="152.41" y="684.18" width="23.77" height="15" rx="4" fill="#ffffff" stroke="none" opacity="0.85"/><g font-size="12" font-family="Inter" font-weight="500" fill="#1c2024" text-anchor="middle"><text x="164.3" y="696.04" xml:space="preserve">g4</text></g><rect x="268.87" y="678.59" width="30.99" height="15" rx="4" fill="#ffffff" stroke="none" opacity="0.85"/><g font-size="12" font-family="Inter" font-weight="500" fill="#1c2024" text-anchor="middle"><text x="284.36" y="690.45" xml:space="preserve">ring</text></g><polyline points="294.77,704.52 294.77,676.52" fill="none" stroke="#5b616b" stroke-width="2.03" stroke-linecap="round" stroke-linejoin="round"/><rect x="285.82" y="661.52" width="17.91" height="15" rx="4" fill="#ffffff" stroke="none" opacity="0.85"/><g font-size="12" font-family="Inter" font-weight="500" fill="#1c2024" text-anchor="middle"><text x="294.77" y="673.39" xml:space="preserve">r1</text></g><rect x="275.77" y="756.48" width="20.4" height="15" rx="4" fill="#ffffff" stroke="none" opacity="0.85"/><g font-size="12" font-family="Inter" font-weight="500" fill="#1c2024" text-anchor="middle"><text x="285.97" y="768.34" xml:space="preserve">r2</text></g><polyline points="261.94,709.6 261.94,673.6" fill="none" stroke="#5b616b" stroke-width="2.03" stroke-linecap="round" stroke-linejoin="round"/><rect x="251.67" y="658.6" width="20.53" height="15" rx="4" fill="#ffffff" stroke="none" opacity="0.85"/><g font-size="12" font-family="Inter" font-weight="500" fill="#1c2024" text-anchor="middle"><text x="261.94" y="670.47" xml:space="preserve">r3</text></g><rect x="343.64" y="792.46" width="38.4" height="15" rx="4" fill="#ffffff" stroke="none" opacity="0.85"/><g font-size="12" font-family="Inter" font-weight="500" fill="#1c2024" text-anchor="middle"><text x="362.84" y="804.33" xml:space="preserve">crate</text></g><rect x="346.41" y="701.34" width="32.86" height="15" rx="4" fill="#ffffff" stroke="none" opacity="0.85"/><g font-size="12" font-family="Inter" font-weight="500" fill="#1c2024" text-anchor="middle"><text x="362.84" y="713.21" xml:space="preserve">sign</text></g><polyline points="361.27,635.14 361.27,599.14" fill="none" stroke="#5b616b" stroke-width="2.03" stroke-linecap="round" stroke-linejoin="round"/><rect x="344.51" y="584.14" width="33.52" height="15" rx="4" fill="#ffffff" stroke="none" opacity="0.85"/><g font-size="12" font-family="Inter" font-weight="500" fill="#1c2024" text-anchor="middle"><text x="361.27" y="596.01" xml:space="preserve">flow</text></g></g></g></g><g data-layer="labels"></g><g data-layer="overlays"></g></svg>
